<?xml version="1.0" encoding="UTF-8"?>
<svg version="1.1" xmlns="http://www.w3.org/2000/svg" width="489" height="511">
<path d="M0 0 C8.17359515 -0.08092472 8.17359515 -0.08092472 11.38256645 3.03636169 C13.53460502 7.24133179 15.38256645 11.27287151 15.38256645 16.03636169 C16.23979301 15.81979919 17.09701958 15.60323669 17.9802227 15.38011169 C32.13669142 11.93276418 32.13669142 11.93276418 38.50756645 14.09886169 C46.27070779 19.3305439 47.4928722 26.38725563 49.38256645 35.03636169 C50.2415368 39.4838003 51.00403883 43.94500365 51.75756645 48.41136169 C53.42805834 58.06174347 55.28228413 67.62338556 57.5949688 77.14134216 C59.0347441 83.15036204 60.13487055 89.19715323 61.18261528 95.28421021 C62.08624888 100.48298237 63.09025692 105.65298379 64.17162895 110.81761169 C64.39751198 111.89707817 64.39751198 111.89707817 64.6279583 112.99835205 C65.24207278 115.92130197 65.86028192 118.84336521 66.48119926 121.76487732 C66.94416211 123.94837494 67.40296077 126.13268499 67.85912895 128.31761169 C68.00465202 129.01048279 68.15017509 129.70335388 68.30010796 130.41722107 C69.01142085 133.89076565 69.55041624 137.28087325 69.78100395 140.81761169 C70.21409966 145.47531911 72.00984908 149.38385382 73.88451958 153.63548279 C75.5476247 157.41107834 77.09034336 161.2236603 78.61694145 165.05589294 C79.19252372 166.49397059 79.76812631 167.9320401 80.34374809 169.37010193 C80.94008059 170.862998 81.53635223 172.35591838 82.13256645 173.84886169 C82.59177986 174.99731064 82.59177986 174.99731064 83.06027031 176.16896057 C87.23927469 186.62089369 91.39119007 197.08271016 95.45385551 207.58055115 C97.56748154 213.02576145 99.78018412 218.4229977 102.03661919 223.81053162 C104.52176334 229.76667342 106.95231685 235.74516513 109.38256645 241.72386169 C109.66423668 242.41664215 109.94590691 243.10942261 110.23611259 243.82319641 C114.58969497 254.53948501 118.86439829 265.28478868 123.08642387 276.05354309 C128.78204969 290.57575326 134.58146331 305.05601999 140.38256645 319.53636169 C153.79334369 353.01497591 153.79334369 353.01497591 159.58447075 367.88865662 C162.28546791 374.80957995 165.05700332 381.69622237 167.90340996 388.55882263 C169.59441947 392.64052752 171.2698692 396.72855285 172.94494438 400.81681824 C173.76759172 402.81206537 174.59772333 404.80424584 175.43591118 406.79301453 C184.30945024 427.85725748 184.30945024 427.85725748 182.38256645 437.03636169 C180.29145395 440.77049116 178.27875648 442.43301408 174.38256645 444.03636169 C171.93934631 444.2936306 171.93934631 444.2936306 169.15847588 444.30378723 C168.10146477 444.3123172 167.04445366 444.32084717 165.95541191 444.32963562 C164.80102623 444.32872925 163.64664055 444.32782288 162.45727348 444.32688904 C160.62742912 444.33696487 160.62742912 444.33696487 158.76061821 444.34724426 C155.41750747 444.36298853 152.07464515 444.36959936 148.73151445 444.37087584 C146.64158408 444.37229837 144.55167967 444.37656991 142.46175575 444.38187027 C135.1669506 444.40036859 127.8722185 444.40854115 120.57739067 444.40696716 C113.78356859 444.40576586 106.99006425 444.42686616 100.19632256 444.45845449 C94.35838935 444.48462883 88.52055985 444.49533398 82.68256843 444.49405634 C79.19805596 444.49354704 75.71382591 444.49921243 72.22937202 444.52041245 C68.34167188 444.54342052 64.45440559 444.53426677 60.56664848 444.52220154 C59.41631126 444.53344055 58.26597404 444.54467957 57.08077812 444.55625916 C49.26838757 444.49458512 45.74007466 443.43003696 40.2067852 437.83714294 C37.80294719 434.14645376 36.54732844 430.39559404 35.19506645 426.22386169 C34.59220247 424.43261834 33.98660895 422.64229192 33.3786602 420.85276794 C33.05881157 419.90933533 32.73896294 418.96590271 32.40942192 417.99388123 C30.6223751 412.84688047 28.68707315 407.75630235 26.75756645 402.66136169 C23.54259245 394.14974173 20.39101535 385.62329121 17.38256645 377.03636169 C16.76663628 377.16164246 16.1507061 377.28692322 15.51611137 377.41600037 C1.95903634 380.1668378 -11.60798993 382.82527978 -25.22802925 385.24803162 C-31.44511415 386.37326356 -37.53984476 387.73614376 -43.65820503 389.30882263 C-48.56621206 390.51547728 -53.52466367 391.42578974 -58.49243355 392.34886169 C-60.77776482 392.781532 -63.06291391 393.21516547 -65.3479023 393.64964294 C-67.12560005 393.98729675 -67.12560005 393.98729675 -68.93921089 394.33177185 C-87.05141165 397.80129338 -105.176916 401.33645657 -123.13647652 405.53636169 C-125.61743355 406.03636169 -125.61743355 406.03636169 -128.32104683 406.28636169 C-131.01089581 406.58616521 -133.14315903 406.93229845 -135.61743355 408.03636169 C-137.89423606 410.93149902 -138.89871196 414.04854907 -139.99243355 417.53636169 C-140.60441271 419.27594503 -141.21639188 421.01552836 -141.82837105 422.75511169 C-142.11808784 423.62071716 -142.40780464 424.48632263 -142.70630074 425.37815857 C-147.59624008 439.64441247 -147.59624008 439.64441247 -153.42737103 443.11297703 C-155.99312198 444.19476125 -157.87763247 444.29585597 -160.65843391 444.31051636 C-161.67481941 444.32049149 -162.69120491 444.33046661 -163.73838997 444.34074402 C-164.847593 444.34140869 -165.95679604 444.34207336 -167.09961128 444.34275818 C-168.27234596 444.3510817 -169.44508064 444.35940521 -170.65335274 444.36798096 C-173.86619124 444.38794536 -177.07887943 444.39872083 -180.29177165 444.4038074 C-182.29995012 444.40745349 -184.30810375 444.41369477 -186.31627274 444.42080879 C-193.32462978 444.44529151 -200.33291289 444.45835312 -207.3413105 444.4618988 C-213.87051881 444.46553567 -220.39925752 444.49544418 -226.92832226 444.53730339 C-232.53779282 444.57200412 -238.14710767 444.58744718 -243.75668484 444.58814484 C-247.1054324 444.5889376 -250.45370116 444.59767462 -253.80233765 444.6261425 C-257.53726419 444.65293949 -261.27088833 444.64826512 -265.00586128 444.63572693 C-266.66662949 444.65797836 -266.66662949 444.65797836 -268.36094856 444.68067932 C-275.8752277 444.60869508 -275.8752277 444.60869508 -279.76112556 441.61218262 C-280.3737072 440.76216171 -280.98628883 439.91214081 -281.61743355 439.03636169 C-282.05055855 438.43823669 -282.48368355 437.84011169 -282.92993355 437.22386169 C-284.88142271 431.01457798 -283.42101781 425.56162516 -281.0666523 419.71214294 C-280.51103733 418.30414743 -279.95554093 416.89610512 -279.40014839 415.48802185 C-279.1071888 414.75939941 -278.8142292 414.03077698 -278.51239204 413.28007507 C-277.3136067 410.27465 -276.16767978 407.25024549 -275.02127266 404.22453308 C-273.50304745 400.21962924 -271.9657771 396.22203529 -270.42993355 392.22386169 C-270.10517036 391.37829712 -269.78040718 390.53273254 -269.44580269 389.6615448 C-262.80863355 372.3994674 -255.88326167 355.26875084 -248.77441597 338.19529724 C-248.45448677 337.42097351 -248.13455757 336.64664978 -247.80493355 335.84886169 C-247.56544487 335.27012802 -247.32595619 334.69139435 -247.07921028 334.09512329 C-245.27038617 329.69772323 -243.56231893 325.27307974 -241.9104023 320.81370544 C-238.61835626 311.97805042 -235.20146938 303.19249301 -231.76831245 294.41087341 C-230.74914026 291.80351952 -229.73199402 289.19538209 -228.7150898 286.58714294 C-228.03934254 284.85666092 -227.36356137 283.12619214 -226.68774605 281.39573669 C-226.19108437 280.12047119 -226.19108437 280.12047119 -225.68438911 278.81944275 C-223.95113804 274.3838742 -222.18425179 269.96570401 -220.36255074 265.56565857 C-219.99572182 264.67251953 -219.6288929 263.77938049 -219.25094795 262.85917664 C-218.55438398 261.16772675 -217.85010621 259.4794235 -217.13650703 257.79508972 C-213.98341297 250.11228211 -213.11168119 243.90225243 -214.80493355 235.61058044 C-214.94511909 234.90585098 -215.08530464 234.20112152 -215.22973824 233.47503662 C-215.68067818 231.22210993 -216.14850571 228.97310507 -216.61743355 226.72386169 C-216.90113779 225.32240173 -217.18369393 223.92070885 -217.4650898 222.51878357 C-218.10362394 219.34758942 -218.75014888 216.17812535 -219.40014839 213.00926208 C-220.75675335 206.37678823 -222.07897697 199.73749523 -223.40308952 193.09848022 C-225.81725089 180.99469252 -228.25069589 168.89505828 -230.71087837 156.80053711 C-231.94469086 150.73429835 -233.17211244 144.66677095 -234.39817619 138.59896183 C-235.29114234 134.18157561 -236.18751656 129.76492846 -237.09057808 125.34959412 C-237.98818074 120.96005367 -238.87707087 116.5688269 -239.76021385 112.17635536 C-240.09120671 110.53776279 -240.42519484 108.89977172 -240.76252556 107.26247215 C-246.38630393 79.9386014 -246.38630393 79.9386014 -241.61743355 72.03636169 C-237.47539469 67.87659656 -234.13315377 66.24560717 -228.42993355 65.03636169 C-227.71216743 64.88030457 -226.99440132 64.72424744 -226.25488472 64.5634613 C-218.1720253 62.84906764 -210.02513281 61.42941881 -201.89502144 59.95994568 C-194.83998076 58.67387819 -187.8474019 57.24236824 -180.86743355 55.59886169 C-171.61652772 53.42639994 -162.31885885 51.53784199 -152.99243355 49.72386169 C-151.96068001 49.52121201 -151.96068001 49.52121201 -150.90808296 49.31446838 C-148.9448462 48.92972601 -146.98037839 48.55128169 -145.01587105 48.17308044 C-143.30923286 47.84376526 -143.30923286 47.84376526 -141.56811714 47.50779724 C-138.61743355 47.03636169 -138.61743355 47.03636169 -134.61743355 47.03636169 C-134.36872505 46.03451843 -134.36872505 46.03451843 -134.11499214 45.01243591 C-132.33392085 38.13435411 -130.01715125 31.69507195 -127.24243355 25.16136169 C-124.73883719 19.19589588 -122.28447119 13.22256933 -119.97046089 7.18040466 C-119.52761757 6.02523346 -119.08477425 4.87006226 -118.62851143 3.67988586 C-118.29485573 2.80752289 -117.96120003 1.93515991 -117.61743355 1.03636169 C-102.77873618 0.90549775 -87.94003489 0.77508733 -73.10132885 0.64521027 C-66.21078047 0.58488968 -59.32023344 0.52442316 -52.42968941 0.46360779 C-45.7772159 0.40489402 -39.12473885 0.34659396 -32.47225952 0.2885437 C-29.93701686 0.26635376 -27.40177539 0.2440263 -24.86653519 0.22155762 C-21.30962745 0.19005809 -17.75271573 0.15905205 -14.19580269 0.12815857 C-12.63133652 0.11413246 -12.63133652 0.11413246 -11.03526497 0.099823 C-9.11480902 0.0833342 -7.19433755 0.0685303 -5.2738533 0.05575562 C-3.51585081 0.04292084 -1.75787972 0.02442067 0 0 Z M22.82006645 111.11448669 C19.04511685 116.16143019 18.02265765 121.89148622 17.38256645 128.03636169 C16.08319145 128.16011169 16.08319145 128.16011169 14.75756645 128.28636169 C10.87148867 129.14993453 8.49756625 130.58886186 5.38256645 133.03636169 C5.38256645 133.69636169 5.38256645 134.35636169 5.38256645 135.03636169 C4.72256645 135.03636169 4.06256645 135.03636169 3.38256645 135.03636169 C-1.05012153 142.90080811 -2.81863795 150.06222066 -0.61743355 159.03636169 C3.08472798 166.01351227 8.4744812 170.69479905 15.87273979 173.39755249 C20.96830604 174.6944925 26.18935933 174.39767441 31.41381645 174.32933044 C32.64547539 174.3250856 33.87713432 174.32084076 35.14611626 174.31646729 C39.05849389 174.29974918 42.97034595 174.26210832 46.88256645 174.22386169 C49.54401725 174.20710621 52.2054631 174.19511924 54.86694145 174.18284607 C61.37232743 174.14986805 67.87740938 174.09973668 74.38256645 174.03636169 C74.22876518 172.77807556 74.07496391 171.51978943 73.916502 170.22337341 C73.82998878 169.51558746 73.74347557 168.80780151 73.65434074 168.0785675 C71.79676995 154.12013955 66.92193217 139.76157916 60.8005352 127.10276794 C59.59939098 124.50525219 58.5023304 121.90443588 57.4333477 119.25120544 C57.08513969 118.39389832 56.73693169 117.53659119 56.37817192 116.65330505 C55.68450952 114.937715 54.9996062 113.21855153 54.32446098 111.49559021 C52.11298019 105.7237586 52.11298019 105.7237586 47.38256645 102.03636169 C37.73347403 100.18653569 29.29800686 104.09671792 22.82006645 111.11448669 Z M-54.61743355 179.03636169 C-54.88052315 179.84919617 -54.88052315 179.84919617 -55.14892769 180.67845154 C-58.50210525 190.99541961 -61.98325517 201.21391027 -65.99072456 211.29588318 C-68.49755333 217.63520706 -70.76028348 224.04510875 -72.98584175 230.48777771 C-75.01999732 236.36530553 -77.13709214 242.20690156 -79.30493355 248.03636169 C-84.24840855 259.30158425 -84.24840855 259.30158425 -86.61743355 271.03636169 C-64.83743355 271.03636169 -43.05743355 271.03636169 -20.61743355 271.03636169 C-22.62925649 264.33028522 -24.68942112 257.70236639 -26.99243355 251.09886169 C-27.32622017 250.13939636 -27.66000679 249.17993103 -28.00390816 248.19139099 C-31.81387588 237.33555786 -35.85309256 226.56472922 -39.88598824 215.79026794 C-43.24161606 206.8141008 -46.528605 197.82313307 -49.52588081 188.71922302 C-50.77323159 185.02089313 -52.01750235 181.98243758 -54.61743355 179.03636169 Z " fill="#56A5E7" transform="translate(292.61743354797363,27.963638305664063)"/>
<path d="M0 0 C2.7920147 1.39600735 3.00162933 3.00416384 4.125 5.875 C4.65480469 7.20144531 4.65480469 7.20144531 5.1953125 8.5546875 C6 11 6 11 6 14 C6.85722656 13.7834375 7.71445312 13.566875 8.59765625 13.34375 C22.75412497 9.89640249 22.75412497 9.89640249 29.125 12.0625 C36.88814134 17.2941822 38.11030575 24.35089394 40 33 C40.85897035 37.44743861 41.62147238 41.90864195 42.375 46.375 C44.04549189 56.02538178 45.89971767 65.58702386 48.21240234 75.10498047 C49.65217765 81.11400034 50.7523041 87.16079154 51.80004883 93.24784851 C52.70368243 98.44662068 53.70769047 103.61662209 54.7890625 108.78125 C55.01494553 109.86071648 55.01494553 109.86071648 55.24539185 110.96199036 C55.85950633 113.88494027 56.47771547 116.80700351 57.09863281 119.72851562 C57.56159565 121.91201325 58.02039432 124.09632329 58.4765625 126.28125 C58.62208557 126.97412109 58.76760864 127.66699219 58.9175415 128.38085938 C59.6288544 131.85440396 60.16784979 135.24451156 60.3984375 138.78125 C60.83153321 143.43895741 62.62728263 147.34749213 64.50195312 151.59912109 C66.16505824 155.37471665 67.7077769 159.1872986 69.234375 163.01953125 C69.80995727 164.4576089 70.38555985 165.89567841 70.96118164 167.33374023 C71.55751414 168.82663631 72.15378577 170.31955669 72.75 171.8125 C73.20921341 172.96094894 73.20921341 172.96094894 73.67770386 174.13259888 C77.85670824 184.58453199 82.00862362 195.04634846 86.07128906 205.54418945 C88.18491509 210.98939976 90.39761767 216.386636 92.65405273 221.77416992 C95.13919689 227.73031173 97.56975039 233.70880344 100 239.6875 C100.28167023 240.38028046 100.56334045 241.07306091 100.85354614 241.78683472 C105.20712852 252.50312331 109.48183184 263.24842699 113.70385742 274.0171814 C119.39948324 288.53939157 125.19889686 303.01965829 131 317.5 C144.41077724 350.97861422 144.41077724 350.97861422 150.2019043 365.85229492 C152.90290146 372.77321825 155.67443687 379.65986068 158.52084351 386.52246094 C160.21185302 390.60416582 161.88730275 394.69219115 163.56237793 398.78045654 C164.38502527 400.77570367 165.21515688 402.76788415 166.05334473 404.75665283 C174.92688379 425.82089579 174.92688379 425.82089579 173 435 C170.9088875 438.73412946 168.89619003 440.39665238 165 442 C162.55677986 442.25726891 162.55677986 442.25726891 159.77590942 442.26742554 C158.71889832 442.27595551 157.66188721 442.28448547 156.57284546 442.29327393 C155.41845978 442.29236755 154.2640741 442.29146118 153.07470703 442.29052734 C151.24486267 442.30060318 151.24486267 442.30060318 149.37805176 442.31088257 C146.03494101 442.32662683 142.6920787 442.33323766 139.348948 442.33451414 C137.25901763 442.33593668 135.16911322 442.34020822 133.0791893 442.34550858 C125.78438415 442.3640069 118.48965205 442.37217946 111.19482422 442.37060547 C104.40100213 442.36940417 97.6074978 442.39050446 90.81375611 442.4220928 C84.9758229 442.44826714 79.1379934 442.45897228 73.30000198 442.45769465 C69.81548951 442.45718534 66.33125946 442.46285073 62.84680557 442.48405075 C58.95910543 442.50705883 55.07183914 442.49790508 51.18408203 442.48583984 C50.03374481 442.49707886 48.88340759 442.50831787 47.69821167 442.51989746 C39.88582112 442.45822342 36.35750821 441.39367526 30.82421875 435.80078125 C28.42038074 432.11009206 27.16476199 428.35923235 25.8125 424.1875 C25.20963601 422.39625664 24.60404249 420.60593023 23.99609375 418.81640625 C23.5163208 417.40125732 23.5163208 417.40125732 23.02685547 415.95751953 C21.23980865 410.81051878 19.3045067 405.71994066 17.375 400.625 C14.160026 392.11338004 11.0084489 383.58692951 8 375 C7.38406982 375.12528076 6.76813965 375.25056152 6.13354492 375.37963867 C-7.42353011 378.13047611 -20.99055638 380.78891809 -34.6105957 383.21166992 C-40.8276806 384.33690186 -46.92241121 385.69978207 -53.04077148 387.27246094 C-57.94877851 388.47911558 -62.90723012 389.38942804 -67.875 390.3125 C-70.16033127 390.74517031 -72.44548036 391.17880378 -74.73046875 391.61328125 C-75.91560059 391.83838379 -77.10073242 392.06348633 -78.32177734 392.29541016 C-96.43728829 395.76556578 -114.50910677 399.44198205 -132.50830078 403.47314453 C-134.26581624 403.84476107 -136.03098697 404.18102945 -137.80029297 404.49169922 C-138.70408691 404.6517041 -139.60788086 404.81170898 -140.5390625 404.9765625 C-141.35584473 405.11143066 -142.17262695 405.24629883 -143.01416016 405.38525391 C-145.30916659 405.85757039 -145.30916659 405.85757039 -146.625 408.625 C-146.74875 409.40875 -146.8725 410.1925 -147 411 C-148 408 -148 408 -147 405 C-148.32 405.33 -149.64 405.66 -151 406 C-150.505 404.02 -150.505 404.02 -150 402 C-149.401875 401.9175 -148.80375 401.835 -148.1875 401.75 C-145.32266145 400.76776964 -144.62567246 399.5244182 -143 397 C-142.24842908 394.84092926 -142.24842908 394.84092926 -141.75 392.4375 C-140.40816697 387.16800988 -138.65678766 382.1465751 -136.75 377.0625 C-134.21488782 370.29589796 -131.74869757 363.51253263 -129.375 356.6875 C-129.08431641 355.85331543 -128.79363281 355.01913086 -128.49414062 354.15966797 C-127.92850917 352.53620309 -127.36307326 350.91267008 -126.79785156 349.2890625 C-125.62321455 345.91899008 -124.44041977 342.55203972 -123.25 339.1875 C-122.88390625 338.14980469 -122.5178125 337.11210937 -122.140625 336.04296875 C-121.36212382 333.96607691 -120.52015056 331.91215951 -119.625 329.8828125 C-117.33328492 324.60911543 -115.59525599 319.12895313 -113.75 313.6875 C-110.81386707 305.10380527 -107.75408823 296.60325824 -104.39916992 288.17504883 C-101.6432149 281.20890148 -99.28334818 274.13414777 -97 267 C-96.67 267.66 -96.34 268.32 -96 269 C-74.22 269 -52.44 269 -30 269 C-32.31 263.06 -34.62 257.12 -37 251 C-39.5390625 243.44921875 -39.5390625 243.44921875 -40.73535156 239.77880859 C-42.8441762 233.47757544 -45.1967139 227.26855878 -47.53451538 221.04940796 C-53.27032806 205.78382816 -58.87161345 190.48238025 -64 175 C-63.34 175 -62.68 175 -62 175 C-61.92523438 174.3915625 -61.85046875 173.783125 -61.7734375 173.15625 C-60.19260017 162.61733448 -56.07072807 153.05367472 -52.0625 143.25 C-48.36906632 134.12325066 -45.32000751 124.72916968 -42.11181641 115.42382812 C-38.73771693 105.63912825 -35.23736323 95.94047553 -31.42285156 86.31835938 C-29.28207994 80.86512814 -27.4830344 75.35865664 -25.82421875 69.73828125 C-24.95324385 66.84466321 -23.94408801 64.04582295 -22.8515625 61.23046875 C-21.66719814 58.12830339 -20.55493481 55.00185707 -19.4375 51.875 C-18.81681641 50.13863281 -18.81681641 50.13863281 -18.18359375 48.3671875 C-17.42342607 46.20459825 -16.68095285 44.03566199 -15.9609375 41.859375 C-14.81280332 38.44297574 -13.50093614 35.12610696 -12.11328125 31.80078125 C-11.32833154 29.82601303 -10.62428387 27.81814965 -9.98046875 25.79296875 C-7.20215916 17.67402165 -7.20215916 17.67402165 -3.45703125 15.57421875 C-0.95681359 14.83014833 1.41148328 14.30157476 4 14 C4 13.34 4 12.68 4 12 C3.34 12 2.68 12 2 12 C1.66430703 10.37548581 1.3315204 8.75037083 1 7.125 C0.814375 6.22007813 0.62875 5.31515625 0.4375 4.3828125 C0 2 0 2 0 0 Z M13.4375 109.078125 C9.66255039 114.1250685 8.6400912 119.85512452 8 126 C6.700625 126.12375 6.700625 126.12375 5.375 126.25 C1.48892222 127.11357284 -0.88500021 128.55250016 -4 131 C-4 131.66 -4 132.32 -4 133 C-4.66 133 -5.32 133 -6 133 C-10.43268798 140.86444641 -12.20120441 148.02585896 -10 157 C-6.29783847 163.97715058 -0.90808525 168.65843736 6.49017334 171.3611908 C11.58573959 172.65813081 16.80679288 172.36131271 22.03125 172.29296875 C23.26290894 172.28872391 24.49456787 172.28447906 25.7635498 172.28010559 C29.67592744 172.26338749 33.58777949 172.22574662 37.5 172.1875 C40.16145079 172.17074452 42.82289665 172.15875755 45.484375 172.14648438 C51.98976098 172.11350636 58.49484292 172.06337498 65 172 C64.84619873 170.74171387 64.69239746 169.48342773 64.53393555 168.18701172 C64.44742233 167.47922577 64.36090912 166.77143982 64.27177429 166.04220581 C62.41420349 152.08377785 57.53936572 137.72521747 51.41796875 125.06640625 C50.21682452 122.4688905 49.11976395 119.86807419 48.05078125 117.21484375 C47.70257324 116.35753662 47.35436523 115.50022949 46.99560547 114.61694336 C46.30194306 112.9013533 45.61703975 111.18218984 44.94189453 109.45922852 C42.73041374 103.6873969 42.73041374 103.6873969 38 100 C28.35090758 98.15017399 19.91544041 102.06035623 13.4375 109.078125 Z " fill="#8395E7" transform="translate(302,30)"/>
<path d="M0 0 C1.98 0 3.96 0 6 0 C10.17321286 7.79543919 13.24453799 16.02131717 16.4375 24.25 C17.55930042 27.13095088 18.68322852 30.01106484 19.80859375 32.890625 C20.08319427 33.59354172 20.3577948 34.29645844 20.64071655 35.02067566 C22.60995809 40.04528757 24.65440747 45.03435391 26.74633789 50.00927734 C29.20877548 55.88364159 31.60146365 61.78682173 34 67.6875 C34.28167023 68.38028046 34.56334045 69.07306091 34.85354614 69.78683472 C39.20712852 80.50312331 43.48183184 91.24842699 47.70385742 102.0171814 C53.39948324 116.53939157 59.19889686 131.01965829 65 145.5 C78.41077724 178.97861422 78.41077724 178.97861422 84.2019043 193.85229492 C86.90290146 200.77321825 89.67443687 207.65986068 92.52084351 214.52246094 C94.21185302 218.60416582 95.88730275 222.69219115 97.56237793 226.78045654 C98.38502527 228.77570367 99.21515688 230.76788415 100.05334473 232.75665283 C108.92688379 253.82089579 108.92688379 253.82089579 107 263 C104.9088875 266.73412946 102.89619003 268.39665238 99 270 C96.55677986 270.25726891 96.55677986 270.25726891 93.77590942 270.26742554 C92.71889832 270.27595551 91.66188721 270.28448547 90.57284546 270.29327393 C89.41845978 270.29236755 88.2640741 270.29146118 87.07470703 270.29052734 C85.24486267 270.30060318 85.24486267 270.30060318 83.37805176 270.31088257 C80.03494101 270.32662683 76.6920787 270.33323766 73.348948 270.33451414 C71.25901763 270.33593668 69.16911322 270.34020822 67.0791893 270.34550858 C59.78438415 270.3640069 52.48965205 270.37217946 45.19482422 270.37060547 C38.40100213 270.36940417 31.6074978 270.39050446 24.81375611 270.4220928 C18.9758229 270.44826714 13.1379934 270.45897228 7.30000198 270.45769465 C3.81548951 270.45718534 0.33125946 270.46285073 -3.15319443 270.48405075 C-7.04089457 270.50705883 -10.92816086 270.49790508 -14.81591797 270.48583984 C-15.96625519 270.49707886 -17.11659241 270.50831787 -18.30178833 270.51989746 C-26.11417888 270.45822342 -29.64249179 269.39367526 -35.17578125 263.80078125 C-37.57958128 260.11015037 -38.83540777 256.35925933 -40.1875 252.1875 C-40.78510168 250.41056196 -41.38549563 248.6345612 -41.98828125 246.859375 C-42.30748535 245.91771484 -42.62668945 244.97605469 -42.95556641 244.00585938 C-44.82942525 238.61293041 -46.85558337 233.27726867 -48.875 227.9375 C-49.64334674 225.90499236 -50.41158428 223.87244343 -51.1796875 221.83984375 C-51.50694824 220.97738037 -51.83420898 220.11491699 -52.17138672 219.22631836 C-53.64910107 215.2559951 -54.16175642 212.17489342 -54.1875 207.9375 C-54.20167969 206.87402344 -54.21585937 205.81054688 -54.23046875 204.71484375 C-54 202 -54 202 -52 200 C-44.39198542 197.58932096 -36.95598501 196.51509798 -29 197 C-28.9175 196.2575 -28.835 195.515 -28.75 194.75 C-27.84623631 191.43619979 -26.39712112 190.39712112 -24 188 C-22.73215876 184.86649283 -22.73215876 184.86649283 -22 182 C-21.34 182 -20.68 182 -20 182 C-19.814375 181.0409375 -19.814375 181.0409375 -19.625 180.0625 C-19.315625 179.0415625 -19.315625 179.0415625 -19 178 C-18.34 177.67 -17.68 177.34 -17 177 C-16.31867549 175.33927151 -15.65257873 173.672233 -15 172 C-14.34 171.34 -13.68 170.68 -13 170 C-12.608125 169.01 -12.21625 168.02 -11.8125 167 C-10.06156666 162.72487848 -7.44572534 159.20497721 -4.76171875 155.46875 C-0.43523378 149.40591519 3.12681078 143.01646258 6.5703125 136.41796875 C8 134 8 134 9.4609375 132.54296875 C11.65346892 130.34487253 12.96866579 127.81826762 14.5 125.125 C18 119 18 119 19.78125 116.6171875 C21.52780972 112.86656245 20.7792572 109.91080158 20 106 C19.71479492 104.44369873 19.71479492 104.44369873 19.42382812 102.85595703 C18.72290658 99.08668381 17.9897842 95.32427588 17.25 91.5625 C16.9798159 90.17866168 16.70979858 88.79479078 16.43994141 87.41088867 C13.67371968 73.24873434 10.84790147 59.09823577 7.9765625 44.95703125 C5.98712426 35.13208499 4.09102204 25.29138845 2.25 15.4375 C2.02699219 14.25236816 1.80398438 13.06723633 1.57421875 11.84619141 C1.36925781 10.74065918 1.16429687 9.63512695 0.953125 8.49609375 C0.76911133 7.50794678 0.58509766 6.5197998 0.39550781 5.50170898 C0 3 0 3 0 0 Z " fill="#7959CE" transform="translate(368,202)"/>
<path d="M0 0 C0.495 0.99 0.495 0.99 1 2 C23.11 1.67 45.22 1.34 68 1 C72 12 72 12 73.07421875 15.2578125 C74.1785404 18.52884117 75.49015408 21.68601802 76.8125 24.875 C79.00601102 30.24310019 80.89420635 35.63452258 82.5625 41.1875 C83.96687421 45.85907996 85.49680586 50.39409793 87.4375 54.875 C89.76422107 60.25374716 91.60412845 65.70656423 93.40234375 71.27685547 C96.25712395 80.00241144 99.54082353 88.56983259 102.83666992 97.13696289 C103.26052979 98.25707764 103.68438965 99.37719238 104.12109375 100.53125 C104.5070874 101.53736328 104.89308105 102.54347656 105.29077148 103.58007812 C106 106 106 106 105 108 C103.02001953 108.60668945 103.02001953 108.60668945 100.3828125 109.11328125 C99.39627686 109.30680176 98.40974121 109.50032227 97.39331055 109.69970703 C95.77549683 110.00303955 95.77549683 110.00303955 94.125 110.3125 C93.01616455 110.5276123 91.9073291 110.74272461 90.76489258 110.96435547 C84.76742306 112.12060545 78.76171119 113.23091185 72.75390625 114.33203125 C71.57231934 114.54883545 70.39073242 114.76563965 69.17333984 114.98901367 C66.91280213 115.40144544 64.65144752 115.80943421 62.38916016 116.2121582 C56.17199863 117.33653848 50.07749486 118.69980621 43.95922852 120.27246094 C39.05122149 121.47911558 34.09276988 122.38942804 29.125 123.3125 C26.83966873 123.74517031 24.55451964 124.17880378 22.26953125 124.61328125 C21.08439941 124.83838379 19.89926758 125.06348633 18.67822266 125.29541016 C0.56271171 128.76556578 -17.50910677 132.44198205 -35.50830078 136.47314453 C-37.26581624 136.84476107 -39.03098697 137.18102945 -40.80029297 137.49169922 C-41.70408691 137.6517041 -42.60788086 137.81170898 -43.5390625 137.9765625 C-44.35584473 138.11143066 -45.17262695 138.24629883 -46.01416016 138.38525391 C-48.30916659 138.85757039 -48.30916659 138.85757039 -49.625 141.625 C-49.74875 142.40875 -49.8725 143.1925 -50 144 C-51 141 -51 141 -50 138 C-51.32 138.33 -52.64 138.66 -54 139 C-53.505 137.02 -53.505 137.02 -53 135 C-52.401875 134.9175 -51.80375 134.835 -51.1875 134.75 C-48.32266145 133.76776964 -47.62567246 132.5244182 -46 130 C-45.24842908 127.84092926 -45.24842908 127.84092926 -44.75 125.4375 C-43.40816697 120.16800988 -41.65678766 115.1465751 -39.75 110.0625 C-37.21488782 103.29589796 -34.74869757 96.51253263 -32.375 89.6875 C-32.08431641 88.85331543 -31.79363281 88.01913086 -31.49414062 87.15966797 C-30.92850917 85.53620309 -30.36307326 83.91267008 -29.79785156 82.2890625 C-28.62321455 78.91899008 -27.44041977 75.55203972 -26.25 72.1875 C-25.88390625 71.14980469 -25.5178125 70.11210937 -25.140625 69.04296875 C-24.36212382 66.96607691 -23.52015056 64.91215951 -22.625 62.8828125 C-20.33328492 57.60911543 -18.59525599 52.12895313 -16.75 46.6875 C-13.81386707 38.10380527 -10.75408823 29.60325824 -7.39916992 21.17504883 C-4.6432149 14.20890148 -2.28334818 7.13414777 0 0 Z " fill="#82C1EC" transform="translate(205,297)"/>
<path d="M0 0 C0.66 0 1.32 0 2 0 C2.27880005 1.40185547 2.27880005 1.40185547 2.56323242 2.83203125 C6.91880794 24.77637663 6.91880794 24.77637663 11.4375 46.6875 C16.31268967 69.88127157 20.91207211 93.13682539 25.34106445 116.41967773 C26.70438709 123.55562778 28.15092161 130.67033738 29.69458008 137.76953125 C30.5963596 141.93939666 31.32590263 146.08794782 31.9375 150.3125 C32.77553041 155.1670365 34.44033812 157.61832122 38 161 C47.96971975 165.98485987 64.75464135 160.07472996 75 158 C74.50441631 165.1422355 72.8330875 171.09285171 70.25 177.75 C69.91484375 178.66910156 69.5796875 179.58820313 69.234375 180.53515625 C66.99194951 186.40453508 64.7360306 190.75277373 59.15978909 194.10688877 C56.6140162 195.15961117 54.71112225 195.25964547 51.95899963 195.27415466 C50.94261414 195.28412979 49.92622864 195.29410492 48.87904358 195.30438232 C47.76984055 195.305047 46.66063751 195.30571167 45.51782227 195.30639648 C43.75872025 195.31888176 43.75872025 195.31888176 41.96408081 195.33161926 C38.75124231 195.35158366 35.53855412 195.36235914 32.3256619 195.36744571 C30.31748343 195.37109179 28.3093298 195.37733308 26.30116081 195.3844471 C19.29280377 195.40892982 12.28452066 195.42199143 5.27612305 195.42553711 C-1.25308527 195.42917397 -7.78182397 195.45908249 -14.31088871 195.50094169 C-19.92035927 195.53564243 -25.52967412 195.55108548 -31.13925129 195.55178314 C-34.48799885 195.5525759 -37.83626761 195.56131293 -41.1849041 195.58978081 C-44.91983064 195.6165778 -48.65345478 195.61190343 -52.38842773 195.59936523 C-54.04919594 195.62161667 -54.04919594 195.62161667 -55.74351501 195.64431763 C-63.25779415 195.57233338 -63.25779415 195.57233338 -67.14369202 192.57582092 C-67.75627365 191.72580002 -68.36885529 190.87577911 -69 190 C-69.433125 189.401875 -69.86625 188.80375 -70.3125 188.1875 C-72.26398917 181.97821629 -70.80358426 176.52526347 -68.44921875 170.67578125 C-67.89360378 169.26778574 -67.33810739 167.85974342 -66.78271484 166.45166016 C-66.48975525 165.72303772 -66.19679565 164.99441528 -65.8949585 164.24371338 C-64.69617316 161.2382883 -63.55024623 158.21388379 -62.40383911 155.18817139 C-60.8856139 151.18326754 -59.34834355 147.1856736 -57.8125 143.1875 C-57.48773682 142.34193542 -57.16297363 141.49637085 -56.82836914 140.62518311 C-50.1912 123.36310571 -43.26582812 106.23238915 -36.15698242 89.15893555 C-35.83705322 88.38461182 -35.51712402 87.61028809 -35.1875 86.8125 C-34.94787537 86.23340378 -34.70825073 85.65430756 -34.46136475 85.05766296 C-32.65697962 80.67088654 -30.95253786 76.2571959 -29.3046875 71.80859375 C-25.95421164 62.81597455 -22.47796462 53.87355389 -18.98608398 44.93505859 C-17.93357844 42.23995825 -16.88369626 39.54384573 -15.83398438 36.84765625 C-14.19083346 32.63176922 -12.53651688 28.42043541 -10.8727417 24.21264648 C-10.31761082 22.80523305 -9.76539907 21.39666207 -9.21710205 19.98657227 C-8.55076426 18.27401924 -7.87164255 16.56645511 -7.19140625 14.859375 C-6.83377197 13.95155273 -6.4761377 13.04373047 -6.10766602 12.10839844 C-5 10 -5 10 -2 8 C-1.21011855 6.04614933 -1.21011855 6.04614933 -0.8125 3.875 C-0.544375 2.59625 -0.27625 1.3175 0 0 Z " fill="#4180E0" transform="translate(80,277)"/>
<path d="M0 0 C3.39430695 -0.0384608 6.14400162 -0.04096265 9.38915825 1.04075623 C10.37915825 7.47575623 10.37915825 7.47575623 11.38915825 14.04075623 C12.04915825 14.04075623 12.70915825 14.04075623 13.38915825 14.04075623 C13.71915825 15.03075623 14.04915825 16.02075623 14.38915825 17.04075623 C13.67630669 17.02528748 12.96345512 17.00981873 12.229002 16.99388123 C8.49284465 17.37604537 6.52336401 17.89652137 3.38915825 20.04075623 C0.25241951 25.57043062 -1.30648936 31.91180221 -2.91577339 38.02537537 C-3.61084175 40.04075623 -3.61084175 40.04075623 -5.61084175 42.04075623 C-6.30084241 44.14554816 -6.9142355 46.27577578 -7.48584175 48.41575623 C-10.00640574 57.54579913 -12.90290625 66.41664731 -16.489748 75.18138123 C-18.17362222 79.47614055 -19.67448502 83.83379208 -21.19507027 88.18821716 C-23.04569435 93.4744086 -24.96775233 98.73010422 -26.92334175 103.97825623 C-30.24019361 112.89381903 -33.3488773 121.87763693 -36.41479683 130.88230896 C-38.35059371 136.536058 -40.39054726 142.11427184 -42.64428902 147.64891052 C-44.25144014 151.62599049 -45.74569469 155.64367787 -47.23584175 159.66575623 C-47.53490425 160.45981873 -47.83396675 161.25388123 -48.14209175 162.07200623 C-49.97281692 167.01334408 -51.42403951 171.9057802 -52.61084175 177.04075623 C-53.27084175 177.04075623 -53.93084175 177.04075623 -54.61084175 177.04075623 C-56.53807104 171.8949562 -58.44482686 166.77318769 -59.92334175 161.47825623 C-61.56808925 155.82499844 -63.75927389 150.40289048 -65.91601753 144.9306488 C-69.8369944 134.96888462 -73.35146725 124.88591034 -76.708498 114.72044373 C-77.91946581 111.1242363 -79.250891 107.58260599 -80.61084175 104.04075623 C-81.09053153 102.74928374 -81.56968592 101.45761228 -82.04834175 100.16575623 C-83.18555657 97.12326004 -84.38773352 94.11219549 -85.61084175 91.10325623 C-87.8687752 85.47552815 -89.80431221 79.7934766 -91.50927925 73.97434998 C-93.40963922 67.53593041 -95.62838951 61.5483091 -98.50927925 55.48606873 C-99.90928135 52.37826264 -100.78520704 49.34329509 -101.61084175 46.04075623 C-101.94084175 45.05075623 -102.27084175 44.06075623 -102.61084175 43.04075623 C-109.73887096 42.66559679 -116.13977313 43.83229224 -123.0600605 45.38450623 C-126.34566449 45.99174657 -129.28135224 46.16350238 -132.61084175 46.04075623 C-132.61084175 45.05075623 -132.61084175 44.06075623 -132.61084175 43.04075623 C-131.62084175 43.04075623 -130.63084175 43.04075623 -129.61084175 43.04075623 C-129.67271675 41.33919373 -129.67271675 41.33919373 -129.73584175 39.60325623 C-129.68606023 30.05350032 -126.07811569 21.69731889 -122.48584175 12.97825623 C-122.01791206 11.82647888 -121.54998238 10.67470154 -121.067873 9.48802185 C-119.92180659 6.66963405 -118.76934962 3.85404737 -117.61084175 1.04075623 C-102.77214439 0.90989228 -87.93344309 0.77948186 -73.09473705 0.6496048 C-66.20418868 0.58928421 -59.31364164 0.52881769 -52.42309761 0.46800232 C-45.77062411 0.40928855 -39.11814706 0.35098849 -32.46566772 0.29293823 C-29.93042506 0.27074829 -27.3951836 0.24842083 -24.85994339 0.22595215 C-21.30303566 0.19445262 -17.74612393 0.16344658 -14.18921089 0.1325531 C-13.14623344 0.12320236 -12.103256 0.11385162 -11.02867317 0.10421753 C-9.10797434 0.08772665 -7.18725844 0.07307554 -5.26652908 0.06063843 C-3.51095223 0.04749504 -1.75541219 0.02740265 0 0 Z " fill="#6183E2" transform="translate(292.61084175109863,27.959243774414063)"/>
<path d="M0 0 C0.9061458 2.46427455 1.19386556 3.56295221 0.109375 6.0078125 C-0.33921875 6.70648438 -0.7878125 7.40515625 -1.25 8.125 C-3.07334115 11.20873817 -4.43213322 13.98231099 -5.375 17.4375 C-8.08491374 27.26282971 -12.25579837 36.67564084 -16.05859375 46.1171875 C-16.74750117 47.82808259 -17.43630363 49.53901995 -18.125 51.25 C-18.63353516 52.51239502 -18.63353516 52.51239502 -19.15234375 53.80029297 C-21.54447064 59.77243397 -23.73794455 65.78698442 -25.86328125 71.859375 C-27.31266597 75.86386062 -28.95837265 79.76785653 -30.62109375 83.6875 C-34.63091652 93.32016205 -38.30386061 103.09526958 -41.9375 112.875 C-45.14753265 121.50857983 -48.58645118 130.04868613 -52.02978516 138.59130859 C-54.848171 145.58833796 -57.64167076 152.59427864 -60.375 159.625 C-60.67100098 160.38627197 -60.96700195 161.14754395 -61.27197266 161.93188477 C-63.33638886 167.25587653 -65.36933227 172.5911073 -67.375 177.9375 C-67.62556152 178.60539551 -67.87612305 179.27329102 -68.13427734 179.96142578 C-69.13094872 182.62961979 -70.09919885 185.29759654 -71 188 C-71.66 188 -72.32 188 -73 188 C-73.103125 188.99 -73.20625 189.98 -73.3125 191 C-73.90808706 195.28297163 -75.38595027 198.99996371 -77 203 C-77.33 203 -77.66 203 -78 203 C-78.20568604 201.94127686 -78.41137207 200.88255371 -78.62329102 199.79174805 C-79.42572153 195.6628185 -80.22943875 191.53414011 -81.03344727 187.40551758 C-81.37393976 185.6562315 -81.71413308 183.90688716 -82.05395508 182.1574707 C-86.61656959 158.67201284 -91.32504371 135.21541799 -96.09248352 111.77076721 C-97.32627336 105.70227765 -98.55423048 99.63261151 -99.78073597 93.56264591 C-100.67370099 89.14524375 -101.57007993 84.72858185 -102.47314453 80.31323242 C-103.37074719 75.92369197 -104.25963732 71.53246521 -105.1427803 67.13999367 C-105.47377316 65.5014011 -105.8077613 63.86341003 -106.14509201 62.22611046 C-111.76887038 34.9022397 -111.76887038 34.9022397 -107 27 C-102.85796114 22.84023487 -99.51572023 21.20924547 -93.8125 20 C-93.09473389 19.84394287 -92.37696777 19.68788574 -91.63745117 19.52709961 C-83.55459176 17.81270595 -75.40769926 16.39305711 -67.27758789 14.92358398 C-60.22254721 13.6375165 -53.22996835 12.20600655 -46.25 10.5625 C-36.99909417 8.39003825 -27.7014253 6.5014803 -18.375 4.6875 C-17.68716431 4.55240021 -16.99932861 4.41730042 -16.29064941 4.27810669 C-14.32741265 3.89336432 -12.36294485 3.51491999 -10.3984375 3.13671875 C-8.69179932 2.80740356 -8.69179932 2.80740356 -6.95068359 2.47143555 C-4 2 -4 2 0 2 C0 1.34 0 0.68 0 0 Z " fill="#81C1EC" transform="translate(158,73)"/>
<path d="M0 0 C3.39430695 -0.0384608 6.14400162 -0.04096265 9.38915825 1.04075623 C10.37915825 7.47575623 10.37915825 7.47575623 11.38915825 14.04075623 C12.04915825 14.04075623 12.70915825 14.04075623 13.38915825 14.04075623 C13.71915825 15.03075623 14.04915825 16.02075623 14.38915825 17.04075623 C13.34501762 17.27149841 12.300877 17.5022406 11.22509575 17.73997498 C9.73811306 18.06938616 8.25113424 18.3988148 6.76415825 18.72825623 C5.5560247 18.99509216 5.5560247 18.99509216 4.32348442 19.26731873 C-0.08936758 20.24542292 -4.49633864 21.2431066 -8.895998 22.27903748 C-19.08009975 24.6654724 -29.24838373 26.73400548 -39.56689644 28.44871521 C-47.44424344 29.78128427 -55.2425274 31.40407736 -63.04834175 33.10325623 C-92.61971911 39.52242351 -92.61971911 39.52242351 -101.61084175 39.04075623 C-101.780998 38.3884906 -101.95115425 37.73622498 -102.12646675 37.06419373 C-103.62982207 31.6425187 -105.40601097 27.70232828 -108.61084175 23.04075623 C-110.81521406 18.31137564 -112.56541925 13.57836227 -113.67334175 8.47825623 C-113.98271675 7.34388123 -114.29209175 6.20950623 -114.61084175 5.04075623 C-115.60084175 4.71075623 -116.59084175 4.38075623 -117.61084175 4.04075623 C-117.61084175 3.05075623 -117.61084175 2.06075623 -117.61084175 1.04075623 C-102.77214439 0.90989228 -87.93344309 0.77948186 -73.09473705 0.6496048 C-66.20418868 0.58928421 -59.31364164 0.52881769 -52.42309761 0.46800232 C-45.77062411 0.40928855 -39.11814706 0.35098849 -32.46566772 0.29293823 C-29.93042506 0.27074829 -27.3951836 0.24842083 -24.85994339 0.22595215 C-21.30303566 0.19445262 -17.74612393 0.16344658 -14.18921089 0.1325531 C-13.14623344 0.12320236 -12.103256 0.11385162 -11.02867317 0.10421753 C-9.10797434 0.08772665 -7.18725844 0.07307554 -5.26652908 0.06063843 C-3.51095223 0.04749504 -1.75541219 0.02740265 0 0 Z " fill="#765ACB" transform="translate(292.61084175109863,27.959243774414063)"/>
<path d="M0 0 C-0.94792168 4.47256213 -3.09610092 7.87331734 -5.4375 11.75 C-5.84548828 12.44738281 -6.25347656 13.14476562 -6.67382812 13.86328125 C-7.72307626 15.6125987 -8.85543695 17.31150699 -10 19 C-10.66 19 -11.32 19 -12 19 C-12.268125 19.886875 -12.53625 20.77375 -12.8125 21.6875 C-14.79439339 27.21593946 -18.21200773 31.95176837 -21.375 36.875 C-21.77275635 37.49560303 -22.1705127 38.11620605 -22.58032227 38.75561523 C-24.62065615 41.92202366 -26.69683418 45.03258473 -28.9375 48.0625 C-30.79036779 50.70143291 -31.88715596 53.00388142 -33 56 C-33.66 56.66 -34.32 57.32 -35 58 C-35.70710678 59.64991582 -36.37943989 61.31562256 -37 63 C-37.66 63 -38.32 63 -39 63 C-39.33 64.32 -39.66 65.64 -40 67 C-40.66 67 -41.32 67 -42 67 C-42.061875 67.86625 -42.12375 68.7325 -42.1875 69.625 C-43.23452527 73.97418189 -45.04765173 75.6786082 -48 79 C-48.33 79.99 -48.66 80.98 -49 82 C-50.65 82 -52.3 82 -54 82 C-52.515 81.505 -52.515 81.505 -51 81 C-51.12528076 80.38406982 -51.25056152 79.76813965 -51.37963867 79.13354492 C-52.94335785 71.42699783 -54.47825541 63.71493866 -56 56 C-56.24008789 54.78795898 -56.48017578 53.57591797 -56.72753906 52.32714844 C-57.43326284 48.74091947 -58.12480827 45.15222586 -58.8125 41.5625 C-59.03123779 40.45737061 -59.24997559 39.35224121 -59.4753418 38.21362305 C-62.72338867 21.02969056 -62.72338867 21.02969056 -58.625 14.6875 C-50.32967642 6.37541819 -34.53021567 5.55302748 -23.4296875 3.62109375 C-20.74033466 3.13406972 -18.13761327 2.57802143 -15.5 1.875 C-10.32437594 0.58109398 -5.35013324 0 0 0 Z " fill="#5081DC" transform="translate(388,317)"/>
<path d="M0 0 C2.7920147 1.39600735 3.00162933 3.00416384 4.125 5.875 C4.47820312 6.75929688 4.83140625 7.64359375 5.1953125 8.5546875 C6 11 6 11 6 14 C6.85722656 13.7834375 7.71445312 13.566875 8.59765625 13.34375 C22.75412497 9.89640249 22.75412497 9.89640249 29.125 12.0625 C36.88814134 17.2941822 38.11030575 24.35089394 40 33 C40.85897035 37.44743861 41.62147238 41.90864195 42.375 46.375 C44.04549189 56.02538178 45.89971767 65.58702386 48.21240234 75.10498047 C49.65217765 81.11400034 50.7523041 87.16079154 51.80004883 93.24784851 C52.70368243 98.44662068 53.70769047 103.61662209 54.7890625 108.78125 C54.93965118 109.50089432 55.09023987 110.22053864 55.24539185 110.96199036 C55.85950633 113.88494027 56.47771547 116.80700351 57.09863281 119.72851562 C58.74021694 127.47081096 60.25405516 135.1095612 61 143 C61.19158691 143.69029297 61.38317383 144.38058594 61.58056641 145.09179688 C62.14315989 147.65130252 61.32653329 148.81512164 60 151 C59.62488281 149.82824219 59.24976563 148.65648437 58.86328125 147.44921875 C56.38830468 139.81165939 53.91355742 132.3105136 50.421875 125.06640625 C49.21707887 122.46815086 48.10269121 119.86341608 47.015625 117.21484375 C46.66290527 116.35753662 46.31018555 115.50022949 45.94677734 114.61694336 C45.24359192 112.8999856 44.5458098 111.18080288 43.85400391 109.45922852 C43.52835449 108.66830811 43.20270508 107.8773877 42.8671875 107.0625 C42.57956543 106.35222656 42.29194336 105.64195312 41.99560547 104.91015625 C40.92574912 102.85754319 39.711525 101.54176202 38 100 C38.66 99.67 39.32 99.34 40 99 C36.84178202 89.90070804 33.6237854 80.97223279 29.125 72.4375 C26.82522259 67.91848213 25.1634814 63.16778661 23.42456055 58.41455078 C21.34178171 52.77788057 18.99241955 47.29389108 16.54248047 41.80859375 C14.20928656 36.55858322 12.15063558 31.22949596 10.12890625 25.8515625 C8.64333849 22.0990903 6.85687325 18.5811127 5 15 C4.67 14.01 4.34 13.02 4 12 C3.34 12 2.68 12 2 12 C1.66430703 10.37548581 1.3315204 8.75037083 1 7.125 C0.814375 6.22007813 0.62875 5.31515625 0.4375 4.3828125 C0 2 0 2 0 0 Z " fill="#84C1ED" transform="translate(302,30)"/>
<path d="M0 0 C0.99 0.33 1.98 0.66 3 1 C3.12117188 1.67546875 3.24234375 2.3509375 3.3671875 3.046875 C3.53476563 3.93890625 3.70234375 4.8309375 3.875 5.75 C4.11863281 7.07257812 4.11863281 7.07257812 4.3671875 8.421875 C4.89028675 10.98502375 4.89028675 10.98502375 6.0703125 13.078125 C7 15 7 15 7 19 C7.66 19 8.32 19 9 19 C9.66 21.64 10.32 24.28 11 27 C11.66 27 12.32 27 13 27 C13.66 30.3 14.32 33.6 15 37 C16.485 37.495 16.485 37.495 18 38 C13.79346033 38.84256281 9.58450944 39.67241313 5.375 40.5 C4.18519531 40.73847656 2.99539062 40.97695312 1.76953125 41.22265625 C0.61582031 41.44824219 -0.53789062 41.67382812 -1.7265625 41.90625 C-3.31331787 42.22045898 -3.31331787 42.22045898 -4.93212891 42.54101562 C-8.00392403 43.00058707 -10.89912996 43.081281 -14 43 C-14 42.01 -14 41.02 -14 40 C-13.01 40 -12.02 40 -11 40 C-11.061875 38.2984375 -11.061875 38.2984375 -11.125 36.5625 C-11.08518228 27.41238805 -7.75964663 19.31978893 -4.375 10.9375 C-3.95476562 9.88111328 -3.53453125 8.82472656 -3.1015625 7.73632812 C-2.07373243 5.15507306 -1.03978554 2.57645691 0 0 Z " fill="#4681D9" transform="translate(174,31)"/>
<path d="M0 0 C0.33 0 0.66 0 1 0 C1.26176025 1.53624023 1.26176025 1.53624023 1.52880859 3.10351562 C3.47002212 14.36828673 5.72250471 25.54846546 8.09863281 36.72851562 C9.74021694 44.47081096 11.25405516 52.1095612 12 60 C12.19158691 60.69029297 12.38317383 61.38058594 12.58056641 62.09179688 C13.14315989 64.65130252 12.32653329 65.81512164 11 68 C10.62488281 66.82824219 10.24976563 65.65648437 9.86328125 64.44921875 C7.38874008 56.81300299 4.90645331 49.31925559 1.4296875 42.0703125 C-0.97586825 36.90428293 -3.12582875 31.62910912 -5.32177734 26.37133789 C-5.65387207 25.57719482 -5.9859668 24.78305176 -6.328125 23.96484375 C-6.6262207 23.2493335 -6.92431641 22.53382324 -7.23144531 21.79663086 C-7.78053806 20.51303063 -8.37563914 19.24872171 -9 18 C-8.34 18 -7.68 18 -7 18 C-6.7525 17.113125 -6.505 16.22625 -6.25 15.3125 C-5 12 -5 12 -2.9375 9.5625 C-0.53732185 6.38807084 -0.30702525 3.91457198 0 0 Z " fill="#F6F9FA" transform="translate(351,113)"/>
<path d="M0 0 C3.39430695 -0.0384608 6.14400162 -0.04096265 9.38915825 1.04075623 C9.88415825 4.50575623 9.88415825 4.50575623 10.38915825 8.04075623 C9.83617184 7.39067722 9.28318542 6.74059822 8.71344185 6.07081985 C5.93369768 3.64295024 4.83002966 3.5450442 1.20062065 3.55973816 C0.15176689 3.5542395 -0.89708687 3.54874084 -1.97772408 3.54307556 C-3.12283455 3.55745667 -4.26794502 3.57183777 -5.44775581 3.58665466 C-7.2627961 3.5857785 -7.2627961 3.5857785 -9.11450386 3.58488464 C-12.42860242 3.58719321 -15.74170304 3.60724545 -19.05562496 3.63518047 C-22.52026934 3.66019399 -25.98492716 3.66253607 -29.4496479 3.6672821 C-36.00867994 3.6797121 -42.56744514 3.71253377 -49.1263597 3.75268006 C-56.59422911 3.79739724 -64.0621113 3.81938463 -71.53008127 3.8394618 C-86.89048928 3.8812666 -102.2506311 3.95161882 -117.61084175 4.04075623 C-117.61084175 3.05075623 -117.61084175 2.06075623 -117.61084175 1.04075623 C-102.77214439 0.90989228 -87.93344309 0.77948186 -73.09473705 0.6496048 C-66.20418868 0.58928421 -59.31364164 0.52881769 -52.42309761 0.46800232 C-45.77062411 0.40928855 -39.11814706 0.35098849 -32.46566772 0.29293823 C-29.93042506 0.27074829 -27.3951836 0.24842083 -24.85994339 0.22595215 C-21.30303566 0.19445262 -17.74612393 0.16344658 -14.18921089 0.1325531 C-13.14623344 0.12320236 -12.103256 0.11385162 -11.02867317 0.10421753 C-9.10797434 0.08772665 -7.18725844 0.07307554 -5.26652908 0.06063843 C-3.51095223 0.04749504 -1.75541219 0.02740265 0 0 Z " fill="#806BB8" transform="translate(292.61084175109863,27.959243774414063)"/>
<path d="M0 0 C0.71942119 0.3242565 1.43884237 0.64851299 2.1800642 0.98259544 C5.0469516 2.01693967 7.09036045 2.25928423 10.11897278 2.2784729 C11.63120926 2.29521812 11.63120926 2.29521812 13.17399597 2.31230164 C14.81613823 2.31554192 14.81613823 2.31554192 16.49145508 2.31884766 C18.23356262 2.33391609 18.23356262 2.33391609 20.01086426 2.34928894 C23.84708159 2.38016275 27.68322899 2.39716804 31.51953125 2.4140625 C34.18040487 2.43277076 36.84126172 2.45224754 39.50212097 2.4727478 C45.78825474 2.51949268 52.07440552 2.55625748 58.36062402 2.58942068 C65.51906328 2.62767245 72.67741207 2.67707458 79.83577502 2.72740483 C94.55711338 2.83066079 109.27851677 2.91994176 124 3 C124 3.66 124 4.32 124 5 C108.27544086 5.11673601 92.55099844 5.20494013 76.8261137 5.25906086 C69.52496047 5.28485664 62.22407627 5.32003278 54.9230957 5.37719727 C48.5604797 5.42699094 42.19805849 5.45928104 35.83525306 5.47044247 C32.4652224 5.47696832 29.09574907 5.49233264 25.72589684 5.52865028 C21.96625642 5.56477232 18.20778313 5.56995212 14.44799805 5.56762695 C12.76701775 5.59459152 12.76701775 5.59459152 11.05207825 5.62210083 C8.27307548 5.60341535 5.72027809 5.56774449 3 5 C0.78450012 2.46452332 0.78450012 2.46452332 0 0 Z " fill="#6A9AD4" transform="translate(13,467)"/>
<path d="M0 0 C0.66 0 1.32 0 2 0 C3.50548369 3.78951244 5.00345314 7.58195031 6.5 11.375 C6.92925781 12.45523438 7.35851562 13.53546875 7.80078125 14.6484375 C8.20683594 15.6796875 8.61289062 16.7109375 9.03125 17.7734375 C9.40830078 18.72653809 9.78535156 19.67963867 10.17382812 20.66162109 C11 23 11 23 11 25 C6.85012248 25.7844799 2.94014745 26.12228246 -1.28076172 26.11352539 C-2.5015744 26.11344986 -3.72238708 26.11337433 -4.98019409 26.11329651 C-6.28352692 26.10813522 -7.58685974 26.10297394 -8.9296875 26.09765625 C-10.28874662 26.09578901 -11.64780642 26.09436655 -13.00686646 26.09336853 C-16.56768686 26.08956748 -20.12846587 26.07975802 -23.68927002 26.06866455 C-27.32929932 26.05839835 -30.96933537 26.05385979 -34.609375 26.04882812 C-41.73960017 26.03813339 -48.86979737 26.02108622 -56 26 C-56 25.34 -56 24.68 -56 24 C-26.3 24.495 -26.3 24.495 4 25 C2.68 19.39 1.36 13.78 0 8 C0 5.36 0 2.72 0 0 Z " fill="#A9B5E2" transform="translate(363,177)"/>
<path d="M0 0 C3.73997244 7.47994489 0.58220763 20.71393786 0 29 C0.66 29 1.32 29 2 29 C2.11593506 29.56509277 2.23187012 30.13018555 2.35131836 30.71240234 C2.87715296 33.26720691 3.40727295 35.8211036 3.9375 38.375 C4.11990234 39.26445312 4.30230469 40.15390625 4.49023438 41.0703125 C4.66748047 41.92109375 4.84472656 42.771875 5.02734375 43.6484375 C5.18968506 44.43395996 5.35202637 45.21948242 5.51928711 46.02880859 C5.93706722 48.05960746 5.93706722 48.05960746 7 50 C7.0716735 52.55157655 7.09308442 55.07472971 7.0625 57.625 C7.05798828 58.33140625 7.05347656 59.0378125 7.04882812 59.765625 C7.03703875 61.51045275 7.01910324 63.255237 7 65 C4.62754822 61.06805747 3.97520311 56.79334572 3.08984375 52.3515625 C2.91747696 51.50258392 2.74511017 50.65360535 2.56752014 49.77890015 C2.20409795 47.97900572 1.843692 46.17850002 1.48608398 44.37744141 C0.94593854 41.66733917 0.39061784 38.96066323 -0.16601562 36.25390625 C-5.68139359 9.01461586 -5.68139359 9.01461586 -1 1 C-0.67 0.67 -0.34 0.34 0 0 Z " fill="#A2D0E7" transform="translate(52,99)"/>
<path d="M0 0 C0.33 0 0.66 0 1 0 C1 2.97 1 5.94 1 9 C0.01 9 -0.98 9 -2 9 C-1.979375 10.0725 -1.95875 11.145 -1.9375 12.25 C-2.02439024 17.46341463 -2.02439024 17.46341463 -3 20 C-3.66 20.33 -4.32 20.66 -5 21 C-5.59896093 23.30710878 -5.95654965 25.61688718 -6.33984375 27.96875 C-6.55769531 28.6390625 -6.77554688 29.309375 -7 30 C-7.99 30.33 -8.98 30.66 -10 31 C-10.66 36.28 -11.32 41.56 -12 47 C-14.475 47.495 -14.475 47.495 -17 48 C-17 49.32 -17 50.64 -17 52 C-18.485 52.495 -18.485 52.495 -20 53 C-17.96351093 46.72129546 -15.74181744 40.53621076 -13.375 34.375 C-13.03597656 33.48852783 -12.69695313 32.60205566 -12.34765625 31.6887207 C-8.28950143 21.10339278 -4.14876079 10.5500785 0 0 Z " fill="#7AA5DC" transform="translate(40,375)"/>
<path d="M0 0 C1.64948164 2.47422246 2.71256631 4.50783064 3.81933594 7.22436523 C4.16599304 8.07212021 4.51265015 8.91987518 4.86981201 9.7933197 C5.2376178 10.70586014 5.60542358 11.61840057 5.984375 12.55859375 C6.36362122 13.49929214 6.74286743 14.43999054 7.13360596 15.40919495 C7.93254786 17.39798476 8.72926627 19.38766903 9.52392578 21.37817383 C10.34168595 23.41866619 11.16624567 25.45644658 11.99755859 27.49145508 C13.19571772 30.42469097 14.37347405 33.3653807 15.546875 36.30859375 C15.92277771 37.21910995 16.29868042 38.12962616 16.68597412 39.06773376 C17.02002258 39.9186409 17.35407104 40.76954803 17.69824219 41.64624023 C17.99865417 42.39219955 18.29906616 43.13815887 18.60858154 43.90672302 C19.10830263 46.57919449 18.41462384 47.73959207 17 50 C16.34 49.01 15.68 48.02 15 47 C14.67 47 14.34 47 14 47 C13.67 43.37 13.34 39.74 13 36 C12.01 35.67 11.02 35.34 10 35 C8.64701825 31.84304257 8.00441922 29.03977302 7.625 25.625 C6.97719725 21.86774404 5.81547638 19.36533317 4.0546875 16.04296875 C1.30858179 10.72366029 -0.4558368 6.07782399 0 0 Z " fill="#8872C3" transform="translate(430,342)"/>
<path d="M0 0 C1.80322062 3.20090721 2.55477306 6.15780586 3.21875 9.76171875 C3.42886719 10.88126953 3.63898438 12.00082031 3.85546875 13.15429688 C4.06816406 14.32025391 4.28085937 15.48621094 4.5 16.6875 C4.92586495 18.98329926 5.35292634 21.27887694 5.78125 23.57421875 C5.98548584 24.67386963 6.18972168 25.77352051 6.40014648 26.90649414 C6.92478012 29.61208341 7.50584667 32.29233325 8.12890625 34.9765625 C9.37235098 40.46268088 10.71625342 46.89041193 7.87890625 52.03125 C6.5 53.6875 6.5 53.6875 4 56 C3.67 55.34 3.34 54.68 3 54 C3.33 53.01 3.66 52.02 4 51 C4.99 50.505 4.99 50.505 6 50 C6.05459773 48.43789839 6.09306101 46.87522911 6.125 45.3125 C6.14820313 44.44238281 6.17140625 43.57226562 6.1953125 42.67578125 C5.98117969 39.74216171 5.08771468 37.71720295 4 35 C3.78635086 32.98520751 3.64528202 30.96189667 3.5625 28.9375 C3.28333392 24.35710838 2.66007017 20.23431921 1.4375 15.8125 C-0.03762786 10.43472804 -0.33148639 5.54932776 0 0 Z " fill="#A5CCE5" transform="translate(342,70)"/>
<path d="M0 0 C0.66 0 1.32 0 2 0 C2.18175781 1.00417969 2.36351563 2.00835937 2.55078125 3.04296875 C3.76572122 9.67458402 5.02258627 16.26075915 6.625 22.8125 C7.94703464 28.42939851 9.2121645 34.20083712 9 40 C8.34 40.99 7.68 41.98 7 43 C5.99300458 38.16397337 4.99648601 33.32594451 4.00927734 28.48583984 C3.67257478 26.84235684 3.333103 25.19943847 2.99072266 23.55712891 C2.49678844 21.18538067 2.01311638 18.81172575 1.53125 16.4375 C1.37813354 15.71320801 1.22501709 14.98891602 1.06726074 14.24267578 C0.09988736 9.4099798 -0.13584506 4.92923515 0 0 Z " fill="#A5CEE6" transform="translate(65,192)"/>
<path d="M0 0 C5.55567989 5.55567989 8.39612195 15.95758524 8.625 23.625 C8.42245849 27.38214507 8.04796007 28.91686921 6.125 32.25 C4 34 4 34 2 34 C2.50603992 31.83125748 2.99983813 30.00032373 4 28 C4.66 28 5.32 28 6 28 C5.855625 26.845 5.71125 25.69 5.5625 24.5 C5.04166667 20.33333333 4.52083333 16.16666667 4 12 C2.68 12 1.36 12 0 12 C-0.66 8.37 -1.32 4.74 -2 1 C-1.34 0.67 -0.68 0.34 0 0 Z " fill="#8E7ACA" transform="translate(467,436)"/>
<path d="M0 0 C1.63129887 4.06285757 0.29968777 7.20102184 -0.9375 11.25 C-1.31777344 12.51328125 -1.69804688 13.7765625 -2.08984375 15.078125 C-2.39019531 16.04234375 -2.69054687 17.0065625 -3 18 C-3.66 18 -4.32 18 -5 18 C-4.95875 19.11375 -4.9175 20.2275 -4.875 21.375 C-5 25 -5 25 -7 27 C-7.71408334 28.98356483 -8.38617742 30.98315437 -9 33 C-9.66 33 -10.32 33 -11 33 C-11 33.99 -11 34.98 -11 36 C-12.485 36.495 -12.485 36.495 -14 37 C-11.55513905 29.41445459 -8.75140939 21.99391505 -5.875 14.5625 C-5.41996094 13.37978516 -4.96492188 12.19707031 -4.49609375 10.97851562 C-1.14074248 2.28148496 -1.14074248 2.28148496 0 0 Z " fill="#789ED8" transform="translate(73,292)"/>
<path d="M0 0 C-0.66 0.99 -1.32 1.98 -2 3 C-2 2.34 -2 1.68 -2 1 C-5.24983135 2.08784968 -5.24983135 2.08784968 -8 4 C-11.0035954 4.28627309 -14.00740107 4.44865755 -17.01953125 4.62109375 C-19.9053536 4.81454857 -19.9053536 4.81454857 -21.88134766 5.97265625 C-24.26705325 7.12949528 -26.25404808 7.4761795 -28.87890625 7.81640625 C-29.79994141 7.94080078 -30.72097656 8.06519531 -31.66992188 8.19335938 C-33.10174805 8.37608398 -33.10174805 8.37608398 -34.5625 8.5625 C-36.4599617 8.81132652 -38.35711415 9.06252588 -40.25390625 9.31640625 C-41.09252197 9.42412354 -41.9311377 9.53184082 -42.79516602 9.64282227 C-45.16710417 9.96656159 -45.16710417 9.96656159 -48 11 C-49.39439664 11.06665376 -50.79169875 11.08538199 -52.1875 11.0625 C-54.0746875 11.0315625 -54.0746875 11.0315625 -56 11 C-52.7818797 9.17305877 -49.86355489 8.48436646 -46.22265625 7.88671875 C-45.07853271 7.69287598 -43.93440918 7.4990332 -42.75561523 7.29931641 C-41.53688721 7.09741699 -40.31815918 6.89551758 -39.0625 6.6875 C-29.03429444 4.9783901 -19.15261594 3.01679683 -9.31079102 0.4362793 C-3.3016916 -1.10056387 -3.3016916 -1.10056387 0 0 Z " fill="#6F7DDF" transform="translate(296,48)"/>
<path d="M0 0 C0.66 0 1.32 0 2 0 C1.35004961 3.68402751 0.35353462 7.05702959 -0.92578125 10.5703125 C-1.50295898 12.16359375 -1.50295898 12.16359375 -2.09179688 13.7890625 C-2.49462891 14.88992187 -2.89746094 15.99078125 -3.3125 17.125 C-3.70373047 18.20265625 -4.09496094 19.2803125 -4.49804688 20.390625 C-5.66203598 23.59497312 -6.83076959 26.79756124 -8 30 C-8.7646484 32.1014441 -9.52899369 34.20299852 -10.29296875 36.3046875 C-10.78639771 37.66182861 -10.78639771 37.66182861 -11.28979492 39.04638672 C-11.5241626 39.6910791 -11.75853027 40.33577148 -12 41 C-12.33 41 -12.66 41 -13 41 C-12.60309197 34.84792546 -11.41910194 30.14574363 -8.984375 24.5 C-7.73398875 21.32441587 -7.03359504 18.15713294 -6.39453125 14.8125 C-6 13 -6 13 -5 11 C-4.34 11 -3.68 11 -3 11 C-2.67 8.69 -2.34 6.38 -2 4 C-1.34 4 -0.68 4 0 4 C0 2.68 0 1.36 0 0 Z " fill="#84B8DF" transform="translate(226,236)"/>
<path d="M0 0 C-0.33 0.66 -0.66 1.32 -1 2 C-3.24975586 2.65429688 -3.24975586 2.65429688 -6.21484375 3.21875 C-7.83422852 3.53392578 -7.83422852 3.53392578 -9.48632812 3.85546875 C-10.62521484 4.06816406 -11.76410156 4.28085937 -12.9375 4.5 C-14.04158203 4.71269531 -15.14566406 4.92539062 -16.28320312 5.14453125 C-18.47502835 5.56658383 -20.66757215 5.98492281 -22.86083984 6.39941406 C-26.55792681 7.10674288 -30.24478377 7.8590893 -33.92993164 8.62597656 C-36.67941247 9.12275739 -39.21935594 9.27806441 -42 9 C-42.66 8.34 -43.32 7.68 -44 7 C-42.60201172 6.85304688 -42.60201172 6.85304688 -41.17578125 6.703125 C-33.48068699 5.80056592 -26.53535593 4.39197844 -19.1484375 1.95703125 C-6.12257644 -2.00244265 -6.12257644 -2.00244265 0 0 Z " fill="#ABD0E9" transform="translate(311,403)"/>
<path d="M0 0 C0.66 0 1.32 0 2 0 C3.36657123 3.45356075 4.71612028 6.91352292 6.0625 10.375 C6.45244141 11.35984375 6.84238281 12.3446875 7.24414062 13.359375 C7.79038086 14.77089844 7.79038086 14.77089844 8.34765625 16.2109375 C8.68804932 17.08024902 9.02844238 17.94956055 9.37915039 18.84521484 C10 21 10 21 9 23 C8.67 21.68 8.34 20.36 8 19 C7.01 19 6.02 19 5 19 C4.34 19.66 3.68 20.32 3 21 C1.18225815 13.90215087 -0.43230491 7.34918342 0 0 Z " fill="#DFD9EC" transform="translate(363,177)"/>
<path d="M0 0 C-3 2 -3 2 -6.375 3.8125 C-12.96794529 7.60970267 -15.85321905 11.8887881 -18 19 C-18.20625 19.68320313 -18.4125 20.36640625 -18.625 21.0703125 C-19.10241188 22.70810047 -19.5540378 24.35337033 -20 26 C-20.99 25.67 -21.98 25.34 -23 25 C-22.34 25 -21.68 25 -21 25 C-20.67 21.04 -20.34 17.08 -20 13 C-19.34 13 -18.68 13 -18 13 C-17.938125 12.46375 -17.87625 11.9275 -17.8125 11.375 C-16.97833234 8.93666375 -16.10339385 7.79501325 -14.4375 5.875 C-11.78443825 3.37395127 -11.78443825 3.37395127 -12 1 C-7.58774263 -0.47075246 -4.51718381 -1.36884358 0 0 Z " fill="#ACBAE0" transform="translate(330,130)"/>
<path d="M0 0 C0.99 0.495 0.99 0.495 2 1 C2.67494384 3.145673 3.26476521 5.31838399 3.8125 7.5 C5.26040987 12.83241434 6.97578384 17.1973567 9.828125 21.8984375 C11.99525686 25.78482731 14 30.4964325 14 35 C15.32 35.33 16.64 35.66 18 36 C16.02 36 14.04 36 12 36 C11.34 32.7 10.68 29.4 10 26 C9.34 26 8.68 26 8 26 C6.74335022 23.09399739 6 21.20395416 6 18 C5.34 18 4.68 18 4 18 C1.42113193 11.94526627 0.38979206 6.55925943 0 0 Z " fill="#596ED6" transform="translate(177,32)"/>
<path d="M0 0 C2.7920147 1.39600735 3.00162933 3.00416384 4.125 5.875 C4.47820312 6.75929688 4.83140625 7.64359375 5.1953125 8.5546875 C6 11 6 11 6 14 C6.85722656 13.7834375 7.71445312 13.566875 8.59765625 13.34375 C19.9543058 10.57820738 19.9543058 10.57820738 26 11 C26 11.33 26 11.66 26 12 C24.02 12 22.04 12 20 12 C20 12.66 20 13.32 20 14 C18.44033408 14.36644578 16.87707349 14.71760862 15.3125 15.0625 C14.44238281 15.25972656 13.57226562 15.45695312 12.67578125 15.66015625 C9.83998724 16.02032279 7.75210018 15.70909969 5 15 C4.67 14.01 4.34 13.02 4 12 C3.34 12 2.68 12 2 12 C1.66430703 10.37548581 1.3315204 8.75037083 1 7.125 C0.814375 6.22007813 0.62875 5.31515625 0.4375 4.3828125 C0 2 0 2 0 0 Z " fill="#B1A8DA" transform="translate(302,30)"/>
<path d="M0 0 C2.1640625 0.0234375 2.1640625 0.0234375 4.625 0.375 C5.85089844 0.54128906 5.85089844 0.54128906 7.1015625 0.7109375 C7.72804688 0.80632812 8.35453125 0.90171875 9 1 C3.83539948 6.16460052 -7.84908251 6.89886234 -15 8 C-16.32 8 -17.64 8 -19 8 C-19 7.01 -19 6.02 -19 5 C-16.94921875 4.77213542 -14.8984375 4.54427083 -12.84765625 4.31640625 C-10.98859771 4.18113386 -10.98859771 4.18113386 -10 3 C-7.9720021 2.7746669 -5.94325126 2.55232815 -3.91015625 2.37890625 C-1.7671052 2.13777773 -1.7671052 2.13777773 0 0 Z " fill="#99C7E2" transform="translate(251,412)"/>
<path d="M0 0 C1.98 0.99 1.98 0.99 4 2 C4 3.65 4 5.3 4 7 C4.99 7 5.98 7 7 7 C8.125 14.625 8.125 14.625 7 18 C7.66 18 8.32 18 9 18 C8.34 19.32 7.68 20.64 7 22 C5.82538445 18.89878289 4.66169544 15.79357759 3.5 12.6875 C3.16613281 11.80642578 2.83226562 10.92535156 2.48828125 10.01757812 C2.17246094 9.17001953 1.85664063 8.32246094 1.53125 7.44921875 C1.23798828 6.66893311 0.94472656 5.88864746 0.64257812 5.0847168 C0 3 0 3 0 0 Z " fill="#94A1DD" transform="translate(253,244)"/>
<path d="M0 0 C1.32 0.66 2.64 1.32 4 2 C2.02 2.99 2.02 2.99 0 4 C0 4.66 0 5.32 0 6 C-0.66 6 -1.32 6 -2 6 C-4.63731811 13.53519459 -6.28582933 19.99677873 -6 28 C-8.48124864 24.27812704 -8.36732877 21.31123273 -8.375 17 C-8.39949219 16.27554688 -8.42398437 15.55109375 -8.44921875 14.8046875 C-8.4609375 12.6875 -8.4609375 12.6875 -8 9 C-5.9765625 7.125 -5.9765625 7.125 -4 6 C-4 5.34 -4 4.68 -4 4 C-3.34 4 -2.68 4 -2 4 C-1.34 2.68 -0.68 1.36 0 0 Z " fill="#B0BCE5" transform="translate(298,157)"/>
<path d="M0 0 C-0.99 0.495 -0.99 0.495 -2 1 C-2.33 1.99 -2.66 2.98 -3 4 C-6.63011353 5.81505677 -10.94280504 5.00884371 -14.93359375 4.9375 C-18.04199474 4.84909275 -18.04199474 4.84909275 -21 6 C-22.39439664 6.06665376 -23.79169875 6.08538199 -25.1875 6.0625 C-27.0746875 6.0315625 -27.0746875 6.0315625 -29 6 C-24.69925151 3.67898041 -20.37752076 2.853034 -15.625 1.875 C-14.78710938 1.69324219 -13.94921875 1.51148437 -13.0859375 1.32421875 C-8.64922956 0.39641662 -4.56068333 -0.22283469 0 0 Z " fill="#B0D6EB" transform="translate(139,79)"/>
<path d="M0 0 C0.66 0.66 1.32 1.32 2 2 C1.39028594 7.13296652 -0.66230297 11.9269596 -2.4375 16.75 C-2.75009766 17.62527344 -3.06269531 18.50054687 -3.38476562 19.40234375 C-3.68962891 20.23378906 -3.99449219 21.06523437 -4.30859375 21.921875 C-4.58501709 22.68081055 -4.86144043 23.43974609 -5.14624023 24.22167969 C-6 26 -6 26 -8 27 C-7.67 23.7 -7.34 20.4 -7 17 C-6.34 17 -5.68 17 -5 17 C-4.70996094 15.78763672 -4.70996094 15.78763672 -4.4140625 14.55078125 C-4.15367187 13.48214844 -3.89328125 12.41351563 -3.625 11.3125 C-3.36976563 10.25675781 -3.11453125 9.20101563 -2.8515625 8.11328125 C-2.08094511 5.29593234 -1.14501457 2.68331675 0 0 Z " fill="#739CD5" transform="translate(152,439)"/>
<path d="M0 0 C0.33 0 0.66 0 1 0 C1.66 4.62 2.32 9.24 3 14 C1.35 13.67 -0.3 13.34 -2 13 C-2.2475 13.969375 -2.495 14.93875 -2.75 15.9375 C-3.1625 16.948125 -3.575 17.95875 -4 19 C-6.125 19.875 -6.125 19.875 -8 20 C-8.33 19.34 -8.66 18.68 -9 18 C-8.34 18 -7.68 18 -7 18 C-6.7525 17.113125 -6.505 16.22625 -6.25 15.3125 C-5 12 -5 12 -2.9375 9.5625 C-0.53732185 6.38807084 -0.30702525 3.91457198 0 0 Z " fill="#E8F7FD" transform="translate(351,113)"/>
<path d="M0 0 C1.67653193 3.01635451 2.46032745 5.73461672 3.0625 9.125 C3.68273802 12.67791258 3.68273802 12.67791258 5 16 C5.0716735 18.55157655 5.09308442 21.07472971 5.0625 23.625 C5.05798828 24.33140625 5.05347656 25.0378125 5.04882812 25.765625 C5.03703875 27.51045275 5.01910324 29.255237 5 31 C-0.01565608 21.66122612 0.45598423 10.34364217 0 0 Z " fill="#A3CCE4" transform="translate(54,133)"/>
<path d="M0 0 C0.66 0.33 1.32 0.66 2 1 C1.84964982 7.02767547 0.94992435 10.721131 -2.85546875 15.42578125 C-4.37175313 17.51131915 -4.76887286 19.45760142 -5 22 C-5.66 22 -6.32 22 -7 22 C-6.35983027 16.86243532 -4.80299667 12.41209819 -2.9375 7.625 C-2.65583984 6.88894531 -2.37417969 6.15289062 -2.08398438 5.39453125 C-1.39433382 3.5944264 -0.69786068 1.7969379 0 0 Z " fill="#81A6D9" transform="translate(17,433)"/>
<path d="M0 0 C5.35986296 4.82387666 7.13114312 10.96100005 8 18 C7.55078125 20.27734375 7.55078125 20.27734375 7 22 C7 21.01 7 20.02 7 19 C6.34 19 5.68 19 5 19 C4.16142312 16.39741676 3.32896656 13.79314353 2.5 11.1875 C2.14228516 10.08051758 2.14228516 10.08051758 1.77734375 8.95117188 C0.80059864 5.86744804 0 3.25504191 0 0 Z " fill="#B0D6EA" transform="translate(334,45)"/>
<path d="M0 0 C2.72021314 4.08031971 4.3143124 8.45728553 6.125 13 C6.49753906 13.91523438 6.87007813 14.83046875 7.25390625 15.7734375 C7.60582031 16.65257812 7.95773437 17.53171875 8.3203125 18.4375 C8.64273926 19.24058594 8.96516602 20.04367187 9.29736328 20.87109375 C10 23 10 23 10 26 C9.34 26 8.68 26 8 26 C7.04937777 23.62344443 6.09989695 21.24652587 5.15625 18.8671875 C4.40704447 17.00936027 3.63737905 15.15960146 2.84375 13.3203125 C0.88369411 8.71418115 -0.5384634 5.11540226 0 0 Z " fill="#9787C7" transform="translate(430,342)"/>
<path d="M0 0 C0.33 1.32 0.66 2.64 1 4 C-2.79163027 6.52775351 -5.80874031 6.22443035 -10.1875 6.125 C-10.93708984 6.11597656 -11.68667969 6.10695313 -12.45898438 6.09765625 C-14.30612654 6.07412578 -16.15310412 6.03825561 -18 6 C-14.91545869 3.94363913 -13.15190326 3.48865646 -9.5625 2.875 C-8.61503906 2.70742187 -7.66757813 2.53984375 -6.69140625 2.3671875 C-4 2 -4 2 0 2 C0 1.34 0 0.68 0 0 Z " fill="#A8D1EB" transform="translate(158,73)"/>
<path d="M0 0 C0 0.33 0 0.66 0 1 C-3.06070934 1.67507066 -6.1238209 2.33854922 -9.1875 3 C-10.48397461 3.28617187 -10.48397461 3.28617187 -11.80664062 3.578125 C-12.64775391 3.75859375 -13.48886719 3.9390625 -14.35546875 4.125 C-15.12528076 4.29257812 -15.89509277 4.46015625 -16.68823242 4.6328125 C-19.16060247 5.02550915 -21.50075809 5.06185285 -24 5 C-22.68 4.67 -21.36 4.34 -20 4 C-20 3.34 -20 2.68 -20 2 C-13.38190423 -0.46254726 -6.99560484 -0.18935472 0 0 Z " fill="#AFD4EB" transform="translate(196,427)"/>
<path d="M0 0 C0.66 0 1.32 0 2 0 C2.33 3.63 2.66 7.26 3 11 C2.34 10.01 1.68 9.02 1 8 C-1.74855776 10.37375443 -2.6829917 12.66357897 -4 16 C-4.66 16.33 -5.32 16.66 -6 17 C-5.6875 13.625 -5.6875 13.625 -5 10 C-4.01 9.34 -3.02 8.68 -2 8 C-1.21011855 6.04614933 -1.21011855 6.04614933 -0.8125 3.875 C-0.544375 2.59625 -0.27625 1.3175 0 0 Z " fill="#4A83D1" transform="translate(80,277)"/>
<path d="M0 0 C2.43258416 4.47090212 3.20736724 9.04626044 4.1875 14 C4.47270508 15.35351562 4.47270508 15.35351562 4.76367188 16.734375 C4.93833984 17.60578125 5.11300781 18.4771875 5.29296875 19.375 C5.4530542 20.16648437 5.61313965 20.95796875 5.77807617 21.7734375 C6.01221693 24.12257254 5.7110323 25.7645068 5 28 C4.35105763 25.93847611 3.7059736 23.87573742 3.0625 21.8125 C2.70285156 20.66394531 2.34320313 19.51539062 1.97265625 18.33203125 C0.60731309 13.65477136 -0.12750428 9.56282115 -0.0625 4.6875 C-0.05347656 3.80449219 -0.04445313 2.92148438 -0.03515625 2.01171875 C-0.02355469 1.34785156 -0.01195312 0.68398437 0 0 Z " fill="#BDDEF0" transform="translate(342,70)"/>
<path d="M0 0 C1.98 0 3.96 0 6 0 C6.67408308 1.26691507 7.33900497 2.53870749 8 3.8125 C8.556875 4.87404297 8.556875 4.87404297 9.125 5.95703125 C10 8 10 8 10 11 C8.68 11 7.36 11 6 11 C5.67 8.36 5.34 5.72 5 3 C3.35 2.67 1.7 2.34 0 2 C0 1.34 0 0.68 0 0 Z " fill="#856EC3" transform="translate(368,202)"/>
<path d="M0 0 C0.33 0 0.66 0 1 0 C1 2.97 1 5.94 1 9 C0.01 9 -0.98 9 -2 9 C-1.9175 10.0725 -1.835 11.145 -1.75 12.25 C-2 16 -2 16 -4 18.4375 C-4.99 19.2109375 -4.99 19.2109375 -6 20 C-7 18 -7 18 -6.47094727 16.12060547 C-6.17244873 15.37697754 -5.8739502 14.63334961 -5.56640625 13.8671875 C-5.24736328 13.06152344 -4.92832031 12.25585938 -4.59960938 11.42578125 C-4.25736328 10.58402344 -3.91511719 9.74226563 -3.5625 8.875 C-3.22412109 8.02550781 -2.88574219 7.17601562 -2.53710938 6.30078125 C-1.69823043 4.19767629 -0.85228875 2.09769845 0 0 Z " fill="#94B2E1" transform="translate(40,375)"/>
<path d="M0 0 C0.66 0 1.32 0 2 0 C2 0.99 2 1.98 2 3 C1.01 3.495 1.01 3.495 0 4 C-0.59896093 6.30710878 -0.95654965 8.61688718 -1.33984375 10.96875 C-1.55769531 11.6390625 -1.77554688 12.309375 -2 13 C-2.99 13.33 -3.98 13.66 -5 14 C-5.33 14.99 -5.66 15.98 -6 17 C-5.72679027 10.85278101 -4.8968092 6.99278679 -1 2 C-0.67 1.34 -0.34 0.68 0 0 Z " fill="#6F97D3" transform="translate(35,392)"/>
<path d="M0 0 C0.66 0 1.32 0 2 0 C2.50938345 2.49840454 3.00763114 4.99823388 3.5 7.5 C3.64308594 8.19609375 3.78617188 8.8921875 3.93359375 9.609375 C4.88277373 14.49087203 5.13440046 19.02718299 5 24 C4.67 24 4.34 24 4 24 C3.32698711 20.75128084 2.6627049 17.50083621 2 14.25 C1.80921875 13.32960937 1.6184375 12.40921875 1.421875 11.4609375 C1.24140625 10.57148438 1.0609375 9.68203125 0.875 8.765625 C0.70742188 7.94868164 0.53984375 7.13173828 0.3671875 6.29003906 C0 4 0 4 0 0 Z " fill="#AED5E7" transform="translate(59,165)"/>
<path d="M0 0 C0 0.33 0 0.66 0 1 C-3.53917574 1.84415762 -7.08169141 2.67337694 -10.625 3.5 C-11.62402344 3.73847656 -12.62304688 3.97695313 -13.65234375 4.22265625 C-18.51141554 5.34893117 -22.97324344 6.34312331 -28 6 C-24.24615742 4.12307871 -21.1473104 2.76978855 -17 2 C-15.67162109 1.73509766 -15.67162109 1.73509766 -14.31640625 1.46484375 C-9.48649877 0.53996785 -4.94397557 -0.26724192 0 0 Z " fill="#6A61CD" transform="translate(289,48)"/>
<path d="M0 0 C0.66 0 1.32 0 2 0 C2.67305018 1.60149886 3.33822227 3.20631029 4 4.8125 C4.37125 5.70582031 4.7425 6.59914063 5.125 7.51953125 C6 10 6 10 6 13 C2.35432696 11.78477565 1.51432978 10.15416646 -0.28125 6.85546875 C-1.27367377 4.29350521 -0.92470627 2.54294225 0 0 Z " fill="#8A73C6" transform="translate(452,400)"/>
<path d="M0 0 C0.66 0.33 1.32 0.66 2 1 C0.83348574 6.92863717 -0.75519358 12.38798394 -3 18 C-3.33 18 -3.66 18 -4 18 C-3.85795259 16.41632253 -3.71119847 14.83306682 -3.5625 13.25 C-3.48128906 12.36828125 -3.40007812 11.4865625 -3.31640625 10.578125 C-3.03761535 8.30649548 -2.61209423 6.20148177 -2 4 C-1.34 4 -0.68 4 0 4 C0 2.68 0 1.36 0 0 Z " fill="#97C5E4" transform="translate(236,207)"/>
<path d="M0 0 C4 2 4 2 5.046875 4.3828125 C5.27890625 5.28773438 5.5109375 6.19265625 5.75 7.125 C5.99234375 8.03507813 6.2346875 8.94515625 6.484375 9.8828125 C6.73960937 10.93082031 6.73960937 10.93082031 7 12 C6.34 11.67 5.68 11.34 5 11 C5 10.01 5 9.02 5 8 C4.01 8 3.02 8 2 8 C1.34 8.66 0.68 9.32 0 10 C0 6.7 0 3.4 0 0 Z " fill="#CDC2E6" transform="translate(366,188)"/>
<path d="M0 0 C0.66 0 1.32 0 2 0 C2 2.64 2 5.28 2 8 C2.66 8 3.32 8 4 8 C4.33 13.28 4.66 18.56 5 24 C4.67 24 4.34 24 4 24 C3.32698711 20.75128084 2.6627049 17.50083621 2 14.25 C1.80921875 13.32960937 1.6184375 12.40921875 1.421875 11.4609375 C1.24140625 10.57148438 1.0609375 9.68203125 0.875 8.765625 C0.70742188 7.94868164 0.53984375 7.13173828 0.3671875 6.29003906 C0 4 0 4 0 0 Z " fill="#B9DBEA" transform="translate(50,120)"/>
<path d="M0 0 C1.98 0 3.96 0 6 0 C6.33 0.99 6.66 1.98 7 3 C5.98679687 3.09087891 5.98679687 3.09087891 4.953125 3.18359375 C4.06109375 3.26738281 3.1690625 3.35117187 2.25 3.4375 C1.36828125 3.51871094 0.4865625 3.59992187 -0.421875 3.68359375 C-2.956885 3.91790084 -2.956885 3.91790084 -5.140625 4.66015625 C-7 5 -7 5 -10 3 C-6.7 2.67 -3.4 2.34 0 2 C0 1.34 0 0.68 0 0 Z " fill="#81BDE3" transform="translate(322,42)"/>
<path d="M0 0 C0 0.99 0 1.98 0 3 C-0.66 3.66 -1.32 4.32 -2 5 C-2.70710678 6.64991582 -3.37943989 8.31562256 -4 10 C-4.66 10 -5.32 10 -6 10 C-6.33 11.32 -6.66 12.64 -7 14 C-7.66 14 -8.32 14 -9 14 C-8.75 11.125 -8.75 11.125 -8 8 C-6.0625 6.875 -6.0625 6.875 -4 6 C-2.8499169 4.03327085 -2.8499169 4.03327085 -2 2 C-1.34 1.34 -0.68 0.68 0 0 Z " fill="#616DD5" transform="translate(355,370)"/>
<path d="M0 0 C1.9375 0.3125 1.9375 0.3125 4 1 C4.33 1.99 4.66 2.98 5 4 C5.66 4.33 6.32 4.66 7 5 C7 5.66 7 6.32 7 7 C3.7 7.33 0.4 7.66 -3 8 C-2.01 7.67 -1.02 7.34 0 7 C0 4.69 0 2.38 0 0 Z " fill="#B5A1E0" transform="translate(367,195)"/>
<path d="M0 0 C1.3271261 3.9813783 1.06915913 7.85045227 1 12 C-0.98 12.99 -2.96 13.98 -5 15 C-1.92482916 4.44191344 -1.92482916 4.44191344 0 0 Z " fill="#90B2E1" transform="translate(174,31)"/>
<path d="M0 0 C3 1 3 1 4.3125 3.25 C6.43235433 6.70457742 8.81127544 8.5198809 12 11 C11.01 11.66 10.02 12.32 9 13 C9 12.34 9 11.68 9 11 C8.13375 10.938125 8.13375 10.938125 7.25 10.875 C3.8084709 9.53662757 2.78385301 7.13712081 1 4 C0.25 1.625 0.25 1.625 0 0 Z " fill="#A6B1DF" transform="translate(291,187)"/>
<path d="M0 0 C0.33 0 0.66 0 1 0 C1.62663185 10.91383812 1.62663185 10.91383812 -0.875 15.25 C-3 17 -3 17 -5 17 C-4.49396008 14.83125748 -4.00016187 13.00032373 -3 11 C-2.34 11 -1.68 11 -1 11 C-0.67 7.37 -0.34 3.74 0 0 Z " fill="#907FC3" transform="translate(474,453)"/>
<path d="M0 0 C0.99 0.495 0.99 0.495 2 1 C2 1.66 2 2.32 2 3 C2.66 3 3.32 3 4 3 C4.50615298 4.26839526 5.00469099 5.53983102 5.5 6.8125 C5.91765625 7.87404297 5.91765625 7.87404297 6.34375 8.95703125 C7 11 7 11 7 14 C1.9977458 9.91921368 0.92065781 6.30719307 0 0 Z " fill="#907FC2" transform="translate(329,454)"/>
<path d="M0 0 C0.33 0.99 0.66 1.98 1 3 C-0.32651738 5.58670889 -1.86083381 7.81801344 -3.625 10.125 C-5.18913067 12.05737672 -5.18913067 12.05737672 -6 15 C-7.65 15 -9.3 15 -11 15 C-10.01 14.67 -9.02 14.34 -8 14 C-8.185625 12.88625 -8.185625 12.88625 -8.375 11.75 C-8.25125 10.8425 -8.1275 9.935 -8 9 C-6.02678947 7.6273318 -4.02456848 6.29572383 -2 5 C-0.58809436 2.39562767 -0.58809436 2.39562767 0 0 Z " fill="#656ED6" transform="translate(345,384)"/>
<path d="M0 0 C-3.29324523 2.19549682 -6.48187121 4.17811188 -10 6 C-10.99 5.67 -11.98 5.34 -13 5 C-12.67 3.68 -12.34 2.36 -12 1 C-7.58774263 -0.47075246 -4.51718381 -1.36884358 0 0 Z " fill="#A2AFDF" transform="translate(330,130)"/>
<path d="M0 0 C-0.33 0.66 -0.66 1.32 -1 2 C-2.32 2 -3.64 2 -5 2 C-5 2.66 -5 3.32 -5 4 C-8.63 4.66 -12.26 5.32 -16 6 C-11.75317247 0.90380696 -6.49499472 -0.39363604 0 0 Z " fill="#B3D8EB" transform="translate(69,93)"/>
<path d="M0 0 C3 2 3 2 3.73046875 4.3828125 C3.88128906 5.28773437 4.03210938 6.19265625 4.1875 7.125 C4.34605469 8.03507812 4.50460938 8.94515625 4.66796875 9.8828125 C4.83232422 10.93082031 4.83232422 10.93082031 5 12 C6.32 12.33 7.64 12.66 9 13 C7.02 13 5.04 13 3 13 C2.49487756 11.39743892 1.99608373 9.79288208 1.5 8.1875 C1.2215625 7.29417969 0.943125 6.40085937 0.65625 5.48046875 C0 3 0 3 0 0 Z " fill="#6867D1" transform="translate(186,55)"/>
<path d="M0 0 C2.22023926 2.22023926 2.99988963 3.98529101 4.1875 6.875 C4.55230469 7.73867188 4.91710937 8.60234375 5.29296875 9.4921875 C6.04664008 12.16543056 5.9388856 13.42852989 5 16 C1.75709826 11.1356474 -0.55811184 5.95319301 0 0 Z " fill="#9684CA" transform="translate(417,310)"/>
<path d="M0 0 C0 0.33 0 0.66 0 1 C-1.98 1 -3.96 1 -6 1 C-6 1.66 -6 2.32 -6 3 C-7.58086048 3.36504603 -9.16483907 3.71660506 -10.75 4.0625 C-11.63171875 4.25972656 -12.5134375 4.45695312 -13.421875 4.66015625 C-15.98679028 4.99825872 -17.57091639 4.81158635 -20 4 C-6.3667426 -0.59225513 -6.3667426 -0.59225513 0 0 Z " fill="#ADD4E9" transform="translate(328,41)"/>
<path d="M0 0 C4.62 0 9.24 0 14 0 C10.4482799 1.77586005 8.08232923 2.48627846 4.25 3.125 C3.26515625 3.29257812 2.2803125 3.46015625 1.265625 3.6328125 C0.51796875 3.75398438 -0.2296875 3.87515625 -1 4 C-0.67 2.68 -0.34 1.36 0 0 Z " fill="#B4D8EA" transform="translate(157,432)"/>
<path d="M0 0 C0.99 0.33 1.98 0.66 3 1 C-1.455 8.425 -1.455 8.425 -6 16 C-6.33 14.68 -6.66 13.36 -7 12 C-5.69921875 10.54296875 -5.69921875 10.54296875 -4 9 C-2.7951851 6.73972655 -2.7951851 6.73972655 -1.8125 4.3125 C-1.46832031 3.50425781 -1.12414062 2.69601562 -0.76953125 1.86328125 C-0.38861328 0.94095703 -0.38861328 0.94095703 0 0 Z " fill="#5E78DB" transform="translate(384,320)"/>
<path d="M0 0 C0.66 0 1.32 0 2 0 C1.34309381 3.78239671 0.279869 7.21841526 -1.0625 10.8125 C-1.42472656 11.78832031 -1.78695312 12.76414063 -2.16015625 13.76953125 C-2.57587891 14.87361328 -2.57587891 14.87361328 -3 16 C-3.33 16 -3.66 16 -4 16 C-3.85831863 14.56208484 -3.71148957 13.1246763 -3.5625 11.6875 C-3.48128906 10.88699219 -3.40007812 10.08648437 -3.31640625 9.26171875 C-3 7 -3 7 -2 4 C-1.34 4 -0.68 4 0 4 C0 2.68 0 1.36 0 0 Z " fill="#9AC0DE" transform="translate(226,236)"/>
<path d="M0 0 C2.58155616 3.87233424 3.12134154 5.53536019 3.0625 10.125 C3.05347656 11.03507812 3.04445313 11.94515625 3.03515625 12.8828125 C3.02355469 13.58148438 3.01195312 14.28015625 3 15 C0.57418129 12.57418129 0.03644336 10.92566131 -0.09765625 7.51953125 C-0.08605469 6.62621094 -0.07445312 5.73289062 -0.0625 4.8125 C-0.05347656 3.91144531 -0.04445313 3.01039062 -0.03515625 2.08203125 C-0.02355469 1.39496094 -0.01195312 0.70789063 0 0 Z " fill="#98C8E0" transform="translate(346,95)"/>
<path d="M0 0 C1.21724428 3.95604392 1.89679663 8.20640675 0 12 C-2.0625 12.625 -2.0625 12.625 -4 13 C-3.52140759 11.39566191 -3.04210442 9.79153584 -2.5625 8.1875 C-2.29566406 7.29417969 -2.02882812 6.40085937 -1.75390625 5.48046875 C-1.19612127 3.64526945 -0.60655425 1.81966274 0 0 Z " fill="#91B3E0" transform="translate(163,59)"/>
<path d="M0 0 C-2.08201528 0.50546036 -4.16567067 1.00416835 -6.25 1.5 C-7.41015625 1.7784375 -8.5703125 2.056875 -9.765625 2.34375 C-13 3 -13 3 -17 3 C-17 2.01 -17 1.02 -17 0 C-14.9174133 -0.19561869 -12.83388144 -0.38119313 -10.75 -0.5625 C-9.58984375 -0.66691406 -8.4296875 -0.77132813 -7.234375 -0.87890625 C-4.48128523 -0.98198087 -2.580018 -0.86213473 0 0 Z " fill="#B8DCEE" transform="translate(249,417)"/>
<path d="M0 0 C1.79068573 2.6860286 2.66055791 4.6626589 3.625 7.6875 C3.88539063 8.49574219 4.14578125 9.30398438 4.4140625 10.13671875 C4.60742188 10.75160156 4.80078125 11.36648438 5 12 C0.79842703 9.02388581 0.79842703 9.02388581 -1 7 C-1.4375 3.75 -1.4375 3.75 -1 1 C-0.67 0.67 -0.34 0.34 0 0 Z " fill="#907EC8" transform="translate(395,255)"/>
<path d="M0 0 C1.98 0.99 1.98 0.99 4 2 C4 3.65 4 5.3 4 7 C4.66 7 5.32 7 6 7 C6 7.66 6 8.32 6 9 C5.34 9 4.68 9 4 9 C3.67 9.66 3.34 10.32 3 11 C2.49384702 9.73160474 1.99530901 8.46016898 1.5 7.1875 C1.2215625 6.47980469 0.943125 5.77210938 0.65625 5.04296875 C0 3 0 3 0 0 Z " fill="#9FACDF" transform="translate(253,244)"/>
<path d="M0 0 C0.33 0.66 0.66 1.32 1 2 C-1.20634136 7.12798061 -4.3421278 11.80022081 -8 16 C-7.50506533 11.24583878 -6.27876594 8.44779417 -3.4375 4.625 C-2.79683594 3.75101562 -2.15617187 2.87703125 -1.49609375 1.9765625 C-1.00238281 1.32429688 -0.50867188 0.67203125 0 0 Z " fill="#5C77DB" transform="translate(375,336)"/>
<path d="M0 0 C2.475 0.495 2.475 0.495 5 1 C5.33 2.32 5.66 3.64 6 5 C4.02 5.99 4.02 5.99 2 7 C1.34 4.69 0.68 2.38 0 0 Z " fill="#6C50C8" transform="translate(368,204)"/>
<path d="M0 0 C0.33 0.66 0.66 1.32 1 2 C0.34 2 -0.32 2 -1 2 C-1 2.66 -1 3.32 -1 4 C-3.31 4.33 -5.62 4.66 -8 5 C-8 4.01 -8 3.02 -8 2 C-5.36 1.34 -2.72 0.68 0 0 Z " fill="#97A3D5" transform="translate(308,153)"/>
<path d="M0 0 C0.33 0 0.66 0 1 0 C1.27714844 0.91523438 1.55429688 1.83046875 1.83984375 2.7734375 C2.20207031 3.96195312 2.56429688 5.15046875 2.9375 6.375 C3.29714844 7.55835938 3.65679687 8.74171875 4.02734375 9.9609375 C4.87576274 12.87926818 4.87576274 12.87926818 6 15 C3 14 3 14 1.3125 11.4375 C-0.28057068 7.26517203 -0.22913445 4.42993262 0 0 Z " fill="#92B4D9" transform="translate(9,455)"/>
<path d="M0 0 C2.18975773 3.28463659 2.99806563 6.20696275 4 10 C3.34 10.66 2.68 11.32 2 12 C1.4654744 10.75579353 0.94791389 9.50429064 0.4375 8.25 C0.14746094 7.55390625 -0.14257812 6.8578125 -0.44140625 6.140625 C-1.07831803 3.69987216 -0.80248831 2.3596345 0 0 Z " fill="#9787CA" transform="translate(317,418)"/>
<path d="M0 0 C0.66 0 1.32 0 2 0 C5.70967742 8.38709677 5.70967742 8.38709677 6 11 C5.34 11.66 4.68 12.32 4 13 C3.32942113 11.2097939 2.6636531 9.41778511 2 7.625 C1.62875 6.62726563 1.2575 5.62953125 0.875 4.6015625 C0 2 0 2 0 0 Z " fill="#ACB7E0" transform="translate(248,231)"/>
<path d="M0 0 C1.32 0.33 2.64 0.66 4 1 C3.67 4.3 3.34 7.6 3 11 C1.04783565 7.09567131 0.49360009 4.27786748 0 0 Z " fill="#9385C8" transform="translate(311,403)"/>
<path d="M0 0 C0.33 0.66 0.66 1.32 1 2 C0.328125 3.91015625 0.328125 3.91015625 -0.75 6.0625 C-1.09546875 6.77535156 -1.4409375 7.48820312 -1.796875 8.22265625 C-3 10 -3 10 -6 11 C-4.54955729 6.89041233 -2.48889248 3.56741255 0 0 Z " fill="#6867D2" transform="translate(390,315)"/>
<path d="M0 0 C1.32 0.33 2.64 0.66 4 1 C3.38125 1.5775 2.7625 2.155 2.125 2.75 C0.18652947 4.80249821 -0.90014249 6.43366582 -2 9 C-2.33 9 -2.66 9 -3 9 C-3.26218749 5.85375007 -3.24754367 4.38162983 -1.5 1.6875 C-1.005 1.130625 -0.51 0.57375 0 0 Z " fill="#B9C3E3" transform="translate(315,136)"/>
<path d="M0 0 C-4.17737474 1.59138085 -7.53160785 2.21278058 -12 2 C-12 2.66 -12 3.32 -12 4 C-14.97 3.505 -14.97 3.505 -18 3 C-15.03837914 1.37522189 -12.30733073 0.48304114 -9 -0.1875 C-8.154375 -0.36667969 -7.30875 -0.54585938 -6.4375 -0.73046875 C-3.96978589 -1.00334098 -2.34150494 -0.76424119 0 0 Z " fill="#C2E1F2" transform="translate(98,88)"/>
<path d="M0 0 C0.66 0.99 1.32 1.98 2 3 C1.125 5.6875 1.125 5.6875 0 8 C-0.66 8 -1.32 8 -2 8 C-2.33 9.32 -2.66 10.64 -3 12 C-4 10 -4 10 -3.22265625 7.6171875 C-2.83980469 6.71226562 -2.45695312 5.80734375 -2.0625 4.875 C-1.68222656 3.96492188 -1.30195312 3.05484375 -0.91015625 2.1171875 C-0.60980469 1.41851562 -0.30945312 0.71984375 0 0 Z " fill="#8DB1E0" transform="translate(58,330)"/>
<path d="M0 0 C1.60226148 4.00565371 0.47694566 7.08609399 -1 11 C-1.99 11.33 -2.98 11.66 -4 12 C-3.52309796 10.37433394 -3.04340334 8.74948689 -2.5625 7.125 C-2.29566406 6.22007812 -2.02882813 5.31515625 -1.75390625 4.3828125 C-1 2 -1 2 0 0 Z " fill="#94B2DB" transform="translate(73,292)"/>
<path d="M0 0 C1.13643966 3.40931897 0.86747764 4.00335456 -0.4375 7.1875 C-0.72496094 7.90292969 -1.01242188 8.61835938 -1.30859375 9.35546875 C-1.53675781 9.89816406 -1.76492187 10.44085938 -2 11 C-2.66 11 -3.32 11 -4 11 C-4 9.02 -4 7.04 -4 5 C-3.34 5 -2.68 5 -2 5 C-1.34 3.35 -0.68 1.7 0 0 Z " fill="#97C4E1" transform="translate(209,286)"/>
<path d="M0 0 C0.33 0 0.66 0 1 0 C1.36923077 7.50769231 1.36923077 7.50769231 -0.5 10 C-0.995 10.33 -1.49 10.66 -2 11 C-2.28571429 3.57142857 -2.28571429 3.57142857 0 0 Z " fill="#72AED9" transform="translate(221,247)"/>
<path d="M0 0 C0.66 0 1.32 0 2 0 C2.33 2.64 2.66 5.28 3 8 C2.01 8 1.02 8 0 8 C-0.38063221 5.6739143 -0.71269945 3.33944736 -1 1 C-0.67 0.67 -0.34 0.34 0 0 Z " fill="#7E63C4" transform="translate(325,438)"/>
<path d="M0 0 C2.18975773 3.28463659 2.99806563 6.20696275 4 10 C3.01 10 2.02 10 1 10 C-0.83691257 6.21812119 -1.15837626 4.05431692 0 0 Z " fill="#A393CC" transform="translate(391,244)"/>
<path d="M0 0 C0.66 0 1.32 0 2 0 C2.99 2.97 3.98 5.94 5 9 C3.68 8.67 2.36 8.34 1 8 C0.67 5.36 0.34 2.72 0 0 Z " fill="#9E8ACC" transform="translate(378,215)"/>
<path d="M0 0 C0.66 0.99 1.32 1.98 2 3 C-5.42857143 5.42857143 -5.42857143 5.42857143 -9 4 C-7.88625 3.525625 -6.7725 3.05125 -5.625 2.5625 C-3.73289006 1.74693537 -1.84287291 0.92143645 0 0 Z " fill="#8373CE" transform="translate(305,42)"/>
<path d="M0 0 C0.66 0 1.32 0 2 0 C3.28317892 3.84953676 3.06643637 6.94738135 3 11 C0.43383368 7.15075052 0.44902324 4.5650696 0 0 Z " fill="#836EBF" transform="translate(471,448)"/>
<path d="M0 0 C0.65234375 1.734375 0.65234375 1.734375 1 4 C0.00390625 6.140625 0.00390625 6.140625 -1.4375 8.25 C-1.91058594 8.95640625 -2.38367188 9.6628125 -2.87109375 10.390625 C-3.24363281 10.92171875 -3.61617188 11.4528125 -4 12 C-4.58203125 10.08984375 -4.58203125 10.08984375 -5 8 C-3.6875 6.5625 -3.6875 6.5625 -2 5 C-0.80972016 2.40084462 -0.80972016 2.40084462 0 0 Z " fill="#6A60D0" transform="translate(357,367)"/>
<path d="M0 0 C1.28446919 2.56893838 1.32977144 4.76576337 1.5625 7.625 C1.64628906 8.62789062 1.73007812 9.63078125 1.81640625 10.6640625 C1.87699219 11.43492187 1.93757813 12.20578125 2 13 C1.01 13 0.02 13 -1 13 C-1.02686553 11.02090602 -1.04633375 9.04171029 -1.0625 7.0625 C-1.07410156 5.96035156 -1.08570313 4.85820312 -1.09765625 3.72265625 C-1 1 -1 1 0 0 Z " fill="#939DD6" transform="translate(290,174)"/>
<path d="M0 0 C0.66 0.33 1.32 0.66 2 1 C2.33 2.32 2.66 3.64 3 5 C-0.63 4.67 -4.26 4.34 -8 4 C-8 3.67 -8 3.34 -8 3 C-5.36 3 -2.72 3 0 3 C0 2.01 0 1.02 0 0 Z " fill="#889DD4" transform="translate(340,125)"/>
<path d="M0 0 C1.9451 2.91765 2.45276317 4.62537285 3 8 C2.01 8.33 1.02 8.66 0 9 C-1.125 2.25 -1.125 2.25 0 0 Z " fill="#9581CC" transform="translate(411,295)"/>
<path d="M0 0 C0.66 0.99 1.32 1.98 2 3 C1.5390625 5.04296875 1.5390625 5.04296875 0.625 7.1875 C0.32851562 7.90292969 0.03203125 8.61835938 -0.2734375 9.35546875 C-0.51320313 9.89816406 -0.75296875 10.44085938 -1 11 C-1.66 10.67 -2.32 10.34 -3 10 C-3 9.01 -3 8.02 -3 7 C-2.34 7 -1.68 7 -1 7 C-0.67 4.69 -0.34 2.38 0 0 Z " fill="#4179D1" transform="translate(13,448)"/>
<path d="M0 0 C0.66 0 1.32 0 2 0 C2.66 2.31 3.32 4.62 4 7 C3.01 7 2.02 7 1 7 C0.34 5.02 -0.32 3.04 -1 1 C-0.67 0.67 -0.34 0.34 0 0 Z " fill="#9177C8" transform="translate(463,428)"/>
<path d="M0 0 C0.66 0 1.32 0 2 0 C2.25 2.3125 2.25 2.3125 2 5 C0 6.8125 0 6.8125 -2 8 C-1.47731534 5.23723823 -0.89130413 2.6739124 0 0 Z " fill="#4D7FCD" transform="translate(56,338)"/>
<path d="M0 0 C2.6855594 2.6855594 3.06049974 5.37621328 4 9 C3.34 9.66 2.68 10.32 2 11 C0.19769832 7.17010894 -0.19622241 4.21878192 0 0 Z " fill="#9478C3" transform="translate(426,333)"/>
<path d="M0 0 C2.35953094 2.35953094 2.49141413 3.77895617 3 7 C1.35 6.67 -0.3 6.34 -2 6 C-1.34 4.02 -0.68 2.04 0 0 Z " fill="#7593E6" transform="translate(386,310)"/>
<path d="M0 0 C0.99 0 1.98 0 3 0 C3.33 2.64 3.66 5.28 4 8 C3.34 8 2.68 8 2 8 C0.74335022 5.09399739 0 3.20395416 0 0 Z " fill="#8591D6" transform="translate(242,211)"/>
<path d="M0 0 C0.66 0.33 1.32 0.66 2 1 C1.67 2.32 1.34 3.64 1 5 C-0.32 5 -1.64 5 -3 5 C-2.625 3.0625 -2.625 3.0625 -2 1 C-1.34 0.67 -0.68 0.34 0 0 Z " fill="#4B83D2" transform="translate(172,44)"/>
<path d="M0 0 C2.97903734 2.97903734 4 5.80285329 4 10 C3.34 10 2.68 10 2 10 C0.68373308 6.38026598 0 3.90432869 0 0 Z " fill="#9885C8" transform="translate(459,416)"/>
<path d="M0 0 C0.66 0 1.32 0 2 0 C3.4783226 2.95664519 3.06032783 5.74229737 3 9 C0.23776722 6.23776722 0.42143709 3.79293383 0 0 Z " fill="#D2CEDE" transform="translate(363,177)"/>
<path d="M0 0 C0.66 0 1.32 0 2 0 C1.67 0.99 1.34 1.98 1 3 C0.34 3 -0.32 3 -1 3 C-1 4.65 -1 6.3 -1 8 C-1.66 8 -2.32 8 -3 8 C-2.25 2.25 -2.25 2.25 0 0 Z " fill="#5A77D9" transform="translate(349,376)"/>
<path d="M0 0 C1 2 1 2 0.1875 4.5625 C-1 7 -1 7 -3 8 C-2.74438677 5.6568787 -2.40729228 3.32156597 -2 1 C-1.34 0.67 -0.68 0.34 0 0 Z " fill="#618ECA" transform="translate(77,286)"/>
<path d="M0 0 C1.46534385 3.80989402 0.55203911 6.3241179 -1 10 C-1.99 10.495 -1.99 10.495 -3 11 C-2.32829194 7.1936543 -1.27253436 3.64793184 0 0 Z " fill="#A8C5E4" transform="translate(79,276)"/>
<path d="M0 0 C0.66 0.33 1.32 0.66 2 1 C0.515 4.465 0.515 4.465 -1 8 C-1.93065133 5.39417629 -2.14917407 4.35801776 -1.0625 1.75 C-0.711875 1.1725 -0.36125 0.595 0 0 Z " fill="#5DA6DF" transform="translate(143,114)"/>
</svg>
